<svg xmlns="http://www.w3.org/2000/svg" xmlns:xlink="http://www.w3.org/1999/xlink" version="1.1" viewBox="0 0 2216 2016" style="background: #ffffff"><defs joint-selector="defs"></defs><g joint-selector="layers"  transform="matrix(1,0,0,1,0,0)"><g ></g><g ><!--z-index:0--><!--z-index:1--><!--z-index:2--><!--z-index:3--><!--z-index:4--><!--z-index:5--><!--z-index:6--><!--z-index:7--><!--z-index:8--><!--z-index:9--><!--z-index:10--><!--z-index:11--><!--z-index:12--><!--z-index:13--><g   id="j_3"  transform="translate(20,1979.6)"><g id="v-7"><text  id="v-8" font-size="22px" xml:space="preserve" y="0.8em" font-weight="normal" text-anchor="start" fill="#aaaaaa" pointer-events="none" display="block" font-family="Arial"><tspan dy="0"  display="block">Wednesday, March 11, 2026 at 10:38 PM Moscow Standard Time</tspan></text></g></g><!--z-index:14--><g   id="j_2"  transform="translate(20,1953.1999999999998)"><g id="v-5"><text  id="v-6" font-size="22px" xml:space="preserve" y="0.8em" font-weight="normal" text-anchor="start" fill="#aaaaaa" pointer-events="none" display="block" font-family="Arial"><tspan dy="0"  display="block">System Context diagram веб-сайта конференции {</tspan></text></g></g><!--z-index:15--><g   id="j_1"  transform="translate(20,1909.9999999999998)"><g id="v-3"><text  id="v-4" font-size="36px" xml:space="preserve" y="0.8em" font-weight="normal" text-anchor="start" fill="#000000" pointer-events="none" display="block" font-family="Arial"><tspan dy="0"  display="block">[System Context] Сайт конференции</tspan></text></g></g><!--z-index:16--><g   id="j_4"  transform="translate(208,208)" style=""><g  id="v-9" style="opacity: 1;"><rect  x="0" y="160" width="400" height="240" rx="70" id="v-11" stroke="#073b7c" stroke-width="2" pointer-events="visiblePainted" fill="#08428a" style="fill: rgb(8, 66, 138); stroke: rgb(7, 59, 124);"></rect><circle  cx="200" cy="88.88888888888889" r="88.88888888888889" id="v-10" stroke="#073b7c" stroke-width="2" pointer-events="visiblePainted" fill="#08428a" style="fill: rgb(8, 66, 138); stroke: rgb(7, 59, 124);"></circle><line  x1="80" y1="266.6666666666667" x2="80" y2="400" id="v-17" stroke="#073b7c" stroke-width="2" style="stroke: rgb(7, 59, 124);"></line><line  x1="320" y1="266.6666666666667" x2="320" y2="400" id="v-18" stroke="#073b7c" stroke-width="2" style="stroke: rgb(7, 59, 124);"></line><text  id="v-12" font-size="34" xml:space="preserve" y="0.8em" font-weight="bold" text-anchor="middle" pointer-events="visible" font-family="Arial" fill="#ffffff" transform="matrix(1,0,0,1,200,251.9)" style="fill: rgb(255, 255, 255);"><tspan dy="0" >Слушатель</tspan></text><text  id="v-13" font-size="17" xml:space="preserve" y="0.8em" text-anchor="middle" font-family="Arial" fill="#ffffff" transform="matrix(1,0,0,1,200,292.7)" style="fill: rgb(255, 255, 255);"><tspan dy="0" >[Person]</tspan></text><text  id="v-14" font-size="24" xml:space="preserve" display="none" y="0.8em" text-anchor="middle" font-family="Arial" fill="#ffffff" transform="matrix(1,0,0,1,200,313.1)" style="fill: rgb(255, 255, 255);"><tspan dy="0" style="fill-opacity: 0; stroke-opacity: 0;" >-</tspan></text><g  id="v-15" font-weight="normal" text-anchor="middle" color="#ffffff" transform="matrix(1,0,0,1,200,368)" display="none" style="fill: rgb(255, 255, 255);"><g ></g><g ></g><g ></g><g ></g></g><image  id="v-16"></image></g></g><!--z-index:17--><g   id="j_5"  transform="translate(908,208)" style=""><g  id="v-19" style="opacity: 1;"><rect  x="0" y="160" width="400" height="240" rx="70" id="v-21" stroke="#073b7c" stroke-width="2" pointer-events="visiblePainted" fill="#08428a" style="fill: rgb(8, 66, 138); stroke: rgb(7, 59, 124);"></rect><circle  cx="200" cy="88.88888888888889" r="88.88888888888889" id="v-20" stroke="#073b7c" stroke-width="2" pointer-events="visiblePainted" fill="#08428a" style="fill: rgb(8, 66, 138); stroke: rgb(7, 59, 124);"></circle><line  x1="80" y1="266.6666666666667" x2="80" y2="400" id="v-27" stroke="#073b7c" stroke-width="2" style="stroke: rgb(7, 59, 124);"></line><line  x1="320" y1="266.6666666666667" x2="320" y2="400" id="v-28" stroke="#073b7c" stroke-width="2" style="stroke: rgb(7, 59, 124);"></line><text  id="v-22" font-size="34" xml:space="preserve" y="0.8em" font-weight="bold" text-anchor="middle" pointer-events="visible" font-family="Arial" fill="#ffffff" transform="matrix(1,0,0,1,200,251.9)" style="fill: rgb(255, 255, 255);"><tspan dy="0" >Докладчик</tspan></text><text  id="v-23" font-size="17" xml:space="preserve" y="0.8em" text-anchor="middle" font-family="Arial" fill="#ffffff" transform="matrix(1,0,0,1,200,292.7)" style="fill: rgb(255, 255, 255);"><tspan dy="0" >[Person]</tspan></text><text  id="v-24" font-size="24" xml:space="preserve" display="none" y="0.8em" text-anchor="middle" font-family="Arial" fill="#ffffff" transform="matrix(1,0,0,1,200,313.1)" style="fill: rgb(255, 255, 255);"><tspan dy="0" style="fill-opacity: 0; stroke-opacity: 0;" >-</tspan></text><g  id="v-25" font-weight="normal" text-anchor="middle" color="#ffffff" transform="matrix(1,0,0,1,200,368)" display="none" style="fill: rgb(255, 255, 255);"><g ></g><g ></g><g ></g><g ></g></g><image  id="v-26"></image></g></g><!--z-index:18--><g   id="j_6"  transform="translate(1608,208)" style=""><g  id="v-29" style="opacity: 1;"><rect  x="0" y="160" width="400" height="240" rx="70" id="v-31" stroke="#073b7c" stroke-width="2" pointer-events="visiblePainted" fill="#08428a" style="fill: rgb(8, 66, 138); stroke: rgb(7, 59, 124);"></rect><circle  cx="200" cy="88.88888888888889" r="88.88888888888889" id="v-30" stroke="#073b7c" stroke-width="2" pointer-events="visiblePainted" fill="#08428a" style="fill: rgb(8, 66, 138); stroke: rgb(7, 59, 124);"></circle><line  x1="80" y1="266.6666666666667" x2="80" y2="400" id="v-37" stroke="#073b7c" stroke-width="2" style="stroke: rgb(7, 59, 124);"></line><line  x1="320" y1="266.6666666666667" x2="320" y2="400" id="v-38" stroke="#073b7c" stroke-width="2" style="stroke: rgb(7, 59, 124);"></line><text  id="v-32" font-size="34" xml:space="preserve" y="0.8em" font-weight="bold" text-anchor="middle" pointer-events="visible" font-family="Arial" fill="#ffffff" transform="matrix(1,0,0,1,200,251.9)" style="fill: rgb(255, 255, 255);"><tspan dy="0" >Организатор</tspan></text><text  id="v-33" font-size="17" xml:space="preserve" y="0.8em" text-anchor="middle" font-family="Arial" fill="#ffffff" transform="matrix(1,0,0,1,200,292.7)" style="fill: rgb(255, 255, 255);"><tspan dy="0" >[Person]</tspan></text><text  id="v-34" font-size="24" xml:space="preserve" display="none" y="0.8em" text-anchor="middle" font-family="Arial" fill="#ffffff" transform="matrix(1,0,0,1,200,313.1)" style="fill: rgb(255, 255, 255);"><tspan dy="0" style="fill-opacity: 0; stroke-opacity: 0;" >-</tspan></text><g  id="v-35" font-weight="normal" text-anchor="middle" color="#ffffff" transform="matrix(1,0,0,1,200,368)" display="none" style="fill: rgb(255, 255, 255);"><g ></g><g ></g><g ></g><g ></g></g><image  id="v-36"></image></g></g><!--z-index:19--><g   id="j_7"  transform="translate(883,908)" style=""><g  id="v-45" style="opacity: 1;"><rect  id="v-46" rx="1" ry="1" stroke="#0f6cab" stroke-width="2" pointer-events="visiblePainted" fill="#1178be" width="450" height="300" style="fill: rgb(17, 120, 190); stroke: rgb(15, 108, 171);"></rect><text  id="v-47" font-size="34" xml:space="preserve" y="0.8em" font-weight="bold" text-anchor="middle" pointer-events="visible" font-family="Arial" fill="#ffffff" transform="matrix(1,0,0,1,225,59.3)" style="fill: rgb(255, 255, 255);"><tspan dy="0" >Сайт конференции</tspan></text><text  id="v-48" font-size="17" xml:space="preserve" y="0.8em" text-anchor="middle" font-family="Arial" fill="#ffffff" transform="matrix(1,0,0,1,225,100.1)" style="fill: rgb(255, 255, 255);"><tspan dy="0" >[Software System]</tspan></text><text  id="v-49" font-size="24" xml:space="preserve" y="0.8em" text-anchor="middle" font-family="Arial" fill="#ffffff" transform="matrix(1,0,0,1,225,130.5)" style="fill: rgb(255, 255, 255);"><tspan dy="0" >Позволяет управлять</tspan><tspan dy="1.2em" x="0" >пользователями, отчетами и</tspan><tspan dy="1.2em" x="0" >конференциями. Предоставляет API</tspan><tspan dy="1.2em" x="0" >для интеграции.</tspan></text><g  id="v-50" color="#ffffff" transform="matrix(1,0,0,1,0,268)" display="none" style="fill: rgb(255, 255, 255);"><g ></g><g ></g><g ></g><g ></g></g><image  id="v-51"></image></g></g><!--z-index:20--><g   id="j_8"  transform="translate(508,1508)" style=""><g  id="v-55" style="opacity: 1;"><rect  id="v-56" rx="1" ry="1" stroke="#8a8a8a" stroke-width="2" pointer-events="visiblePainted" fill="#999999" width="450" height="300" style="fill: rgb(153, 153, 153); stroke: rgb(138, 138, 138);"></rect><text  id="v-57" font-size="34" xml:space="preserve" y="0.8em" font-weight="bold" text-anchor="middle" pointer-events="visible" font-family="Arial" fill="#ffffff" transform="matrix(1,0,0,1,225,121.9)" style="fill: rgb(255, 255, 255);"><tspan dy="0" >Почтовая рассылка</tspan></text><text  id="v-58" font-size="17" xml:space="preserve" y="0.8em" text-anchor="middle" font-family="Arial" fill="#ffffff" transform="matrix(1,0,0,1,225,162.7)" style="fill: rgb(255, 255, 255);"><tspan dy="0" >[Software System]</tspan></text><text  id="v-59" font-size="24" xml:space="preserve" display="none" y="0.8em" text-anchor="middle" font-family="Arial" fill="#ffffff" transform="matrix(1,0,0,1,225,183.1)" style="fill: rgb(255, 255, 255);"><tspan dy="0" style="fill-opacity: 0; stroke-opacity: 0;" >-</tspan></text><g  id="v-60" color="#ffffff" transform="matrix(1,0,0,1,0,268)" display="none" style="fill: rgb(255, 255, 255);"><g ></g><g ></g><g ></g><g ></g></g><image  id="v-61"></image></g></g><!--z-index:21--><g   id="j_9"  transform="translate(1258,1508)" style=""><g  id="v-65" style="opacity: 1;"><rect  id="v-66" rx="1" ry="1" stroke="#8a8a8a" stroke-width="2" pointer-events="visiblePainted" fill="#999999" width="450" height="300" style="fill: rgb(153, 153, 153); stroke: rgb(138, 138, 138);"></rect><text  id="v-67" font-size="34" xml:space="preserve" y="0.8em" font-weight="bold" text-anchor="middle" pointer-events="visible" font-family="Arial" fill="#ffffff" transform="matrix(1,0,0,1,225,121.9)" style="fill: rgb(255, 255, 255);"><tspan dy="0" >Платёжная система</tspan></text><text  id="v-68" font-size="17" xml:space="preserve" y="0.8em" text-anchor="middle" font-family="Arial" fill="#ffffff" transform="matrix(1,0,0,1,225,162.7)" style="fill: rgb(255, 255, 255);"><tspan dy="0" >[Software System]</tspan></text><text  id="v-69" font-size="24" xml:space="preserve" display="none" y="0.8em" text-anchor="middle" font-family="Arial" fill="#ffffff" transform="matrix(1,0,0,1,225,183.1)" style="fill: rgb(255, 255, 255);"><tspan dy="0" style="fill-opacity: 0; stroke-opacity: 0;" >-</tspan></text><g  id="v-70" color="#ffffff" transform="matrix(1,0,0,1,0,268)" display="none" style="fill: rgb(255, 255, 255);"><g ></g><g ></g><g ></g><g ></g></g><image  id="v-71"></image></g></g><!--z-index:22--><g   id="j_10" ><path  stroke="#707070" d="M 608 594 L 946 908" id="v-84" stroke-width="2" stroke-dasharray="30 30" fill="none" style="opacity: 1;"></path><path  fill="black" stroke="black" d="M 0 0 0 0" transform="matrix(0.7327935054980232,0.6804510844284978,-0.6804510844284978,0.7327935054980232,608,593.7142944335938)"></path><path  fill="#707070" stroke="#707070" d="M 20 0 L 0 10 L 20 20 z" id="v-86" transform="matrix(-0.7327934601942504,-0.6804511332171749,0.6804511332171749,-0.7327934601942504,939.6570292268024,915.3279415395826)" style="opacity: 1;"></path><path  d="M 608 594 L 946 908" id="v-85" fill="none" style="pointer-events: visiblepainted; cursor: auto;"></path><g ><g id="v-78"  label-idx="0" cursor="move" transform="matrix(1,0,0,1,777,751)" style="opacity: 1;"><rect joint-selector="rect" id="v-81" fill="#ffffff" rx="3" ry="3" pointer-events="none" width="173.59947204589844" height="85.30961990356445" transform="matrix(1,0,0,1,-86.1,-42.7)"></rect><text joint-selector="text" id="v-80" font-size="24px" xml:space="preserve" y="0.8em" fill="#707070" text-anchor="middle" pointer-events="none" font-family="Arial" font-weight="normal" transform="matrix(1,0,0,1,0,-40.3)"><tspan dy="0" >Просматривает</tspan><tspan dy="1.2em" x="0" >расписание и</tspan><tspan dy="1.2em" x="0" >доклады</tspan></text></g><g id="v-79"  label-idx="1" cursor="move" transform="matrix(1,0,0,1,767,806.2000122070312)" style="opacity: 1;"><rect joint-selector="rect" id="v-83" fill="#ffffff" rx="3" ry="3"  width="0" height="0" transform="matrix(1,0,0,1,0,0)" display="none"></rect><text joint-selector="text" id="v-82" fill="#000000" font-size="14" text-anchor="middle" pointer-events="none"></text></g></g><g  display="none" style="display: none;"></g><g  id="v-88" display="none"><g  id="v-76"><path  end="source" d="M 26 0 L 0 13 L 26 26 z"></path></g><g  id="v-77"><path  end="target" d="M 26 0 L 0 13 L 26 26 z"></path></g></g><g  id="v-87" display="none"><g  id="v-75" transform="translate(637.3055628171139, 621.2246944514018) "><g  event="remove"><circle r="11"></circle><path transform="scale(.8) translate(-16, -16)" d="M24.778,21.419 19.276,15.917 24.777,10.415 21.949,7.585 16.447,13.087 10.945,7.585 8.117,10.415 13.618,15.917 8.116,21.419 10.946,24.248 16.447,18.746 21.948,24.248z"></path><title>Remove link.</title></g><g  event="link:options"><circle r="11" transform="translate(25)"></circle><path fill="white" transform="scale(.55) translate(29, -16)" d="M31.229,17.736c0.064-0.571,0.104-1.148,0.104-1.736s-0.04-1.166-0.104-1.737l-4.377-1.557c-0.218-0.716-0.504-1.401-0.851-2.05l1.993-4.192c-0.725-0.91-1.549-1.734-2.458-2.459l-4.193,1.994c-0.647-0.347-1.334-0.632-2.049-0.849l-1.558-4.378C17.165,0.708,16.588,0.667,16,0.667s-1.166,0.041-1.737,0.105L12.707,5.15c-0.716,0.217-1.401,0.502-2.05,0.849L6.464,4.005C5.554,4.73,4.73,5.554,4.005,6.464l1.994,4.192c-0.347,0.648-0.632,1.334-0.849,2.05l-4.378,1.557C0.708,14.834,0.667,15.412,0.667,16s0.041,1.165,0.105,1.736l4.378,1.558c0.217,0.715,0.502,1.401,0.849,2.049l-1.994,4.193c0.725,0.909,1.549,1.733,2.459,2.458l4.192-1.993c0.648,0.347,1.334,0.633,2.05,0.851l1.557,4.377c0.571,0.064,1.148,0.104,1.737,0.104c0.588,0,1.165-0.04,1.736-0.104l1.558-4.377c0.715-0.218,1.399-0.504,2.049-0.851l4.193,1.993c0.909-0.725,1.733-1.549,2.458-2.458l-1.993-4.193c0.347-0.647,0.633-1.334,0.851-2.049L31.229,17.736zM16,20.871c-2.69,0-4.872-2.182-4.872-4.871c0-2.69,2.182-4.872,4.872-4.872c2.689,0,4.871,2.182,4.871,4.872C20.871,18.689,18.689,20.871,16,20.871z"></path><title>Link options.</title></g></g></g></g><!--z-index:23--><g   id="j_11" ><path  stroke="#707070" d="M 1108 608 L 1108 908" id="v-101" stroke-width="2" stroke-dasharray="30 30" fill="none" style="opacity: 1;"></path><path  fill="black" stroke="black" d="M 0 0 0 0" transform="matrix(6.123233995736766e-17,1,-1,6.123233995736766e-17,1108,608)"></path><path  fill="#707070" stroke="#707070" d="M 20 0 L 0 10 L 20 20 z" id="v-103" transform="matrix(-1.8369701987210297e-16,-1,1,-1.8369701987210297e-16,1098.0000000000005,908)" style="opacity: 1;"></path><path  d="M 1108 608 L 1108 908" id="v-102" fill="none" style="pointer-events: visiblepainted; cursor: auto;"></path><g ><g id="v-95"  label-idx="0" cursor="move" transform="matrix(1,0,0,1,1108,758)" style="opacity: 1;"><rect joint-selector="rect" id="v-98" fill="#ffffff" rx="3" ry="3" pointer-events="none" width="197.47914123535156" height="114.10962295532227" transform="matrix(1,0,0,1,-98.7,-57.1)"></rect><text joint-selector="text" id="v-97" font-size="24px" xml:space="preserve" y="0.8em" fill="#707070" text-anchor="middle" pointer-events="none" font-family="Arial" font-weight="normal" transform="matrix(1,0,0,1,0,-54.7)"><tspan dy="0" >Регистрируется,</tspan><tspan dy="1.2em" x="0" >создаёт доклады,</tspan><tspan dy="1.2em" x="0" >добавляет их на</tspan><tspan dy="1.2em" x="0" >конференции</tspan></text></g><g id="v-96"  label-idx="1" cursor="move" transform="matrix(1,0,0,1,1098,827.5999755859375)" style="opacity: 1;"><rect joint-selector="rect" id="v-100" fill="#ffffff" rx="3" ry="3"  width="0" height="0" transform="matrix(1,0,0,1,0,0)" display="none"></rect><text joint-selector="text" id="v-99" fill="#000000" font-size="14" text-anchor="middle" pointer-events="none"></text></g></g><g  display="none" style="display: none;"></g><g  id="v-105" display="none"><g  id="v-93"><path  end="source" d="M 26 0 L 0 13 L 26 26 z"></path></g><g  id="v-94"><path  end="target" d="M 26 0 L 0 13 L 26 26 z"></path></g></g><g  id="v-104" display="none"><g  id="v-92" transform="translate(1108, 648) "><g  event="remove"><circle r="11"></circle><path transform="scale(.8) translate(-16, -16)" d="M24.778,21.419 19.276,15.917 24.777,10.415 21.949,7.585 16.447,13.087 10.945,7.585 8.117,10.415 13.618,15.917 8.116,21.419 10.946,24.248 16.447,18.746 21.948,24.248z"></path><title>Remove link.</title></g><g  event="link:options"><circle r="11" transform="translate(25)"></circle><path fill="white" transform="scale(.55) translate(29, -16)" d="M31.229,17.736c0.064-0.571,0.104-1.148,0.104-1.736s-0.04-1.166-0.104-1.737l-4.377-1.557c-0.218-0.716-0.504-1.401-0.851-2.05l1.993-4.192c-0.725-0.91-1.549-1.734-2.458-2.459l-4.193,1.994c-0.647-0.347-1.334-0.632-2.049-0.849l-1.558-4.378C17.165,0.708,16.588,0.667,16,0.667s-1.166,0.041-1.737,0.105L12.707,5.15c-0.716,0.217-1.401,0.502-2.05,0.849L6.464,4.005C5.554,4.73,4.73,5.554,4.005,6.464l1.994,4.192c-0.347,0.648-0.632,1.334-0.849,2.05l-4.378,1.557C0.708,14.834,0.667,15.412,0.667,16s0.041,1.165,0.105,1.736l4.378,1.558c0.217,0.715,0.502,1.401,0.849,2.049l-1.994,4.193c0.725,0.909,1.549,1.733,2.459,2.458l4.192-1.993c0.648,0.347,1.334,0.633,2.05,0.851l1.557,4.377c0.571,0.064,1.148,0.104,1.737,0.104c0.588,0,1.165-0.04,1.736-0.104l1.558-4.377c0.715-0.218,1.399-0.504,2.049-0.851l4.193,1.993c0.909-0.725,1.733-1.549,2.458-2.458l-1.993-4.193c0.347-0.647,0.633-1.334,0.851-2.049L31.229,17.736zM16,20.871c-2.69,0-4.872-2.182-4.872-4.871c0-2.69,2.182-4.872,4.872-4.872c2.689,0,4.871,2.182,4.871,4.872C20.871,18.689,18.689,20.871,16,20.871z"></path><title>Link options.</title></g></g></g></g><!--z-index:24--><g   id="j_12" ><path  stroke="#707070" d="M 1608 594 L 1270 908" id="v-118" stroke-width="2" stroke-dasharray="30 30" fill="none" style="opacity: 1;"></path><path  fill="black" stroke="black" d="M 0 0 0 0" transform="matrix(-0.7327934601942503,0.6804511332171751,-0.6804511332171751,-0.7327934601942503,1608,593.7142944335938)"></path><path  fill="#707070" stroke="#707070" d="M 20 0 L 0 10 L 20 20 z" id="v-120" transform="matrix(0.7327934601942505,-0.6804511332171748,0.6804511332171748,0.7327934601942505,1262.734009144011,900.6720723356983)" style="opacity: 1;"></path><path  d="M 1608 594 L 1270 908" id="v-119" fill="none" style="pointer-events: visiblepainted; cursor: auto;"></path><g ><g id="v-112"  label-idx="0" cursor="move" transform="matrix(1,0,0,1,1439,751)" style="opacity: 1;"><rect joint-selector="rect" id="v-115" fill="#ffffff" rx="3" ry="3" pointer-events="none" width="182.346435546875" height="114.10962295532227" transform="matrix(1,0,0,1,-90.2,-57.1)"></rect><text joint-selector="text" id="v-114" font-size="24px" xml:space="preserve" y="0.8em" fill="#707070" text-anchor="middle" pointer-events="none" font-family="Arial" font-weight="normal" transform="matrix(1,0,0,1,0,-54.7)"><tspan dy="0" >Управляет</tspan><tspan dy="1.2em" x="0" >конференциями</tspan><tspan dy="1.2em" x="0" >и модерирует</tspan><tspan dy="1.2em" x="0" >доклады</tspan></text></g><g id="v-113"  label-idx="1" cursor="move" transform="matrix(1,0,0,1,1429,820.5999755859375)" style="opacity: 1;"><rect joint-selector="rect" id="v-117" fill="#ffffff" rx="3" ry="3"  width="0" height="0" transform="matrix(1,0,0,1,0,0)" display="none"></rect><text joint-selector="text" id="v-116" fill="#000000" font-size="14" text-anchor="middle" pointer-events="none"></text></g></g><g  display="none" style="display: none;"></g><g  id="v-122" display="none"><g  id="v-110"><path  end="source" d="M 26 0 L 0 13 L 26 26 z"></path></g><g  id="v-111"><path  end="target" d="M 26 0 L 0 13 L 26 26 z"></path></g></g><g  id="v-121" display="none"><g  id="v-109" transform="translate(1578.694437182886, 621.2246944514018) "><g  event="remove"><circle r="11"></circle><path transform="scale(.8) translate(-16, -16)" d="M24.778,21.419 19.276,15.917 24.777,10.415 21.949,7.585 16.447,13.087 10.945,7.585 8.117,10.415 13.618,15.917 8.116,21.419 10.946,24.248 16.447,18.746 21.948,24.248z"></path><title>Remove link.</title></g><g  event="link:options"><circle r="11" transform="translate(25)"></circle><path fill="white" transform="scale(.55) translate(29, -16)" d="M31.229,17.736c0.064-0.571,0.104-1.148,0.104-1.736s-0.04-1.166-0.104-1.737l-4.377-1.557c-0.218-0.716-0.504-1.401-0.851-2.05l1.993-4.192c-0.725-0.91-1.549-1.734-2.458-2.459l-4.193,1.994c-0.647-0.347-1.334-0.632-2.049-0.849l-1.558-4.378C17.165,0.708,16.588,0.667,16,0.667s-1.166,0.041-1.737,0.105L12.707,5.15c-0.716,0.217-1.401,0.502-2.05,0.849L6.464,4.005C5.554,4.73,4.73,5.554,4.005,6.464l1.994,4.192c-0.347,0.648-0.632,1.334-0.849,2.05l-4.378,1.557C0.708,14.834,0.667,15.412,0.667,16s0.041,1.165,0.105,1.736l4.378,1.558c0.217,0.715,0.502,1.401,0.849,2.049l-1.994,4.193c0.725,0.909,1.549,1.733,2.459,2.458l4.192-1.993c0.648,0.347,1.334,0.633,2.05,0.851l1.557,4.377c0.571,0.064,1.148,0.104,1.737,0.104c0.588,0,1.165-0.04,1.736-0.104l1.558-4.377c0.715-0.218,1.399-0.504,2.049-0.851l4.193,1.993c0.909-0.725,1.733-1.549,2.458-2.458l-1.993-4.193c0.347-0.647,0.633-1.334,0.851-2.049L31.229,17.736zM16,20.871c-2.69,0-4.872-2.182-4.872-4.871c0-2.69,2.182-4.872,4.872-4.872c2.689,0,4.871,2.182,4.871,4.872C20.871,18.689,18.689,20.871,16,20.871z"></path><title>Link options.</title></g></g></g></g><!--z-index:25--><g   id="j_13" ><path  stroke="#707070" d="M 1014 1208 L 827 1508" id="v-135" stroke-width="2" stroke-dasharray="30 30" fill="none" style="opacity: 1;"></path><path  fill="black" stroke="black" d="M 0 0 0 0" transform="matrix(-0.5299989865422612,0.8479982749181605,-0.8479982749181605,-0.5299989865422612,1014.25,1208)"></path><path  fill="#707070" stroke="#707070" d="M 20 0 L 0 10 L 20 20 z" id="v-137" transform="matrix(0.5299987607066415,-0.8479984160653982,0.8479984160653982,0.5299987607066415,818.2700160252488,1502.700016084838)" style="opacity: 1;"></path><path  d="M 1014 1208 L 827 1508" id="v-136" fill="none" style="pointer-events: visiblepainted; cursor: auto;"></path><g ><g id="v-129"  label-idx="0" cursor="move" transform="matrix(1,0,0,1,920.5,1358)" style="opacity: 1;"><rect joint-selector="rect" id="v-132" fill="#ffffff" rx="3" ry="3" pointer-events="none" width="173.35231018066406" height="114.10962295532227" transform="matrix(1,0,0,1,-85,-57.1)"></rect><text joint-selector="text" id="v-131" font-size="24px" xml:space="preserve" y="0.8em" fill="#707070" text-anchor="middle" pointer-events="none" font-family="Arial" font-weight="normal" transform="matrix(1,0,0,1,0,-54.7)"><tspan dy="0" >Уведомляет о</tspan><tspan dy="1.2em" x="0" >конференции</tspan><tspan dy="1.2em" x="0" >через</tspan><tspan dy="1.2em" x="0" >email-рассылку</tspan></text></g><g id="v-130"  label-idx="1" cursor="move" transform="matrix(1,0,0,1,910.5,1427.5999755859375)" style="opacity: 1;"><rect joint-selector="rect" id="v-134" fill="#ffffff" rx="3" ry="3"  width="0" height="0" transform="matrix(1,0,0,1,0,0)" display="none"></rect><text joint-selector="text" id="v-133" fill="#000000" font-size="14" text-anchor="middle" pointer-events="none"></text></g></g><g  display="none" style="display: none;"></g><g  id="v-139" display="none"><g  id="v-127"><path  end="source" d="M 26 0 L 0 13 L 26 26 z"></path></g><g  id="v-128"><path  end="target" d="M 26 0 L 0 13 L 26 26 z"></path></g></g><g  id="v-138" display="none"><g  id="v-126" transform="translate(992.8407411961142, 1241.9453349794958) "><g  event="remove"><circle r="11"></circle><path transform="scale(.8) translate(-16, -16)" d="M24.778,21.419 19.276,15.917 24.777,10.415 21.949,7.585 16.447,13.087 10.945,7.585 8.117,10.415 13.618,15.917 8.116,21.419 10.946,24.248 16.447,18.746 21.948,24.248z"></path><title>Remove link.</title></g><g  event="link:options"><circle r="11" transform="translate(25)"></circle><path fill="white" transform="scale(.55) translate(29, -16)" d="M31.229,17.736c0.064-0.571,0.104-1.148,0.104-1.736s-0.04-1.166-0.104-1.737l-4.377-1.557c-0.218-0.716-0.504-1.401-0.851-2.05l1.993-4.192c-0.725-0.91-1.549-1.734-2.458-2.459l-4.193,1.994c-0.647-0.347-1.334-0.632-2.049-0.849l-1.558-4.378C17.165,0.708,16.588,0.667,16,0.667s-1.166,0.041-1.737,0.105L12.707,5.15c-0.716,0.217-1.401,0.502-2.05,0.849L6.464,4.005C5.554,4.73,4.73,5.554,4.005,6.464l1.994,4.192c-0.347,0.648-0.632,1.334-0.849,2.05l-4.378,1.557C0.708,14.834,0.667,15.412,0.667,16s0.041,1.165,0.105,1.736l4.378,1.558c0.217,0.715,0.502,1.401,0.849,2.049l-1.994,4.193c0.725,0.909,1.549,1.733,2.459,2.458l4.192-1.993c0.648,0.347,1.334,0.633,2.05,0.851l1.557,4.377c0.571,0.064,1.148,0.104,1.737,0.104c0.588,0,1.165-0.04,1.736-0.104l1.558-4.377c0.715-0.218,1.399-0.504,2.049-0.851l4.193,1.993c0.909-0.725,1.733-1.549,2.458-2.458l-1.993-4.193c0.347-0.647,0.633-1.334,0.851-2.049L31.229,17.736zM16,20.871c-2.69,0-4.872-2.182-4.872-4.871c0-2.69,2.182-4.872,4.872-4.872c2.689,0,4.871,2.182,4.871,4.872C20.871,18.689,18.689,20.871,16,20.871z"></path><title>Link options.</title></g></g></g></g><!--z-index:26--><g   id="j_14" ><path  stroke="#707070" d="M 1202 1208 L 1389 1508" id="v-152" stroke-width="2" stroke-dasharray="30 30" fill="none" style="opacity: 1;"></path><path  fill="black" stroke="black" d="M 0 0 0 0" transform="matrix(0.52999893008336,0.8479983102049754,-0.8479983102049754,0.52999893008336,1201.75,1208)"></path><path  fill="#707070" stroke="#707070" d="M 20 0 L 0 10 L 20 20 z" id="v-154" transform="matrix(-0.5299989865422614,-0.8479982749181603,0.8479982749181603,-0.5299989865422614,1380.7699582881164,1513.299992145854)" style="opacity: 1;"></path><path  d="M 1202 1208 L 1389 1508" id="v-153" fill="none" style="pointer-events: visiblepainted; cursor: auto;"></path><g ><g id="v-146"  label-idx="0" cursor="move" transform="matrix(1,0,0,1,1295.5,1358)" style="opacity: 1;"><rect joint-selector="rect" id="v-149" fill="#ffffff" rx="3" ry="3" pointer-events="none" width="163.9613494873047" height="85.30961990356445" transform="matrix(1,0,0,1,-81.3,-42.7)"></rect><text joint-selector="text" id="v-148" font-size="24px" xml:space="preserve" y="0.8em" fill="#707070" text-anchor="middle" pointer-events="none" font-family="Arial" font-weight="normal" transform="matrix(1,0,0,1,0,-40.3)"><tspan dy="0" >Обрабатывает</tspan><tspan dy="1.2em" x="0" >платёжные</tspan><tspan dy="1.2em" x="0" >запросы</tspan></text></g><g id="v-147"  label-idx="1" cursor="move" transform="matrix(1,0,0,1,1285.5,1413.199951171875)" style="opacity: 1;"><rect joint-selector="rect" id="v-151" fill="#ffffff" rx="3" ry="3"  width="0" height="0" transform="matrix(1,0,0,1,0,0)" display="none"></rect><text joint-selector="text" id="v-150" fill="#000000" font-size="14" text-anchor="middle" pointer-events="none"></text></g></g><g  display="none" style="display: none;"></g><g  id="v-156" display="none"><g  id="v-144"><path  end="source" d="M 26 0 L 0 13 L 26 26 z"></path></g><g  id="v-145"><path  end="target" d="M 26 0 L 0 13 L 26 26 z"></path></g></g><g  id="v-155" display="none"><g  id="v-143" transform="translate(1223.159258803886, 1241.9453349794958) "><g  event="remove"><circle r="11"></circle><path transform="scale(.8) translate(-16, -16)" d="M24.778,21.419 19.276,15.917 24.777,10.415 21.949,7.585 16.447,13.087 10.945,7.585 8.117,10.415 13.618,15.917 8.116,21.419 10.946,24.248 16.447,18.746 21.948,24.248z"></path><title>Remove link.</title></g><g  event="link:options"><circle r="11" transform="translate(25)"></circle><path fill="white" transform="scale(.55) translate(29, -16)" d="M31.229,17.736c0.064-0.571,0.104-1.148,0.104-1.736s-0.04-1.166-0.104-1.737l-4.377-1.557c-0.218-0.716-0.504-1.401-0.851-2.05l1.993-4.192c-0.725-0.91-1.549-1.734-2.458-2.459l-4.193,1.994c-0.647-0.347-1.334-0.632-2.049-0.849l-1.558-4.378C17.165,0.708,16.588,0.667,16,0.667s-1.166,0.041-1.737,0.105L12.707,5.15c-0.716,0.217-1.401,0.502-2.05,0.849L6.464,4.005C5.554,4.73,4.73,5.554,4.005,6.464l1.994,4.192c-0.347,0.648-0.632,1.334-0.849,2.05l-4.378,1.557C0.708,14.834,0.667,15.412,0.667,16s0.041,1.165,0.105,1.736l4.378,1.558c0.217,0.715,0.502,1.401,0.849,2.049l-1.994,4.193c0.725,0.909,1.549,1.733,2.459,2.458l4.192-1.993c0.648,0.347,1.334,0.633,2.05,0.851l1.557,4.377c0.571,0.064,1.148,0.104,1.737,0.104c0.588,0,1.165-0.04,1.736-0.104l1.558-4.377c0.715-0.218,1.399-0.504,2.049-0.851l4.193,1.993c0.909-0.725,1.733-1.549,2.458-2.458l-1.993-4.193c0.347-0.647,0.633-1.334,0.851-2.049L31.229,17.736zM16,20.871c-2.69,0-4.872-2.182-4.872-4.871c0-2.69,2.182-4.872,4.872-4.872c2.689,0,4.871,2.182,4.871,4.872C20.871,18.689,18.689,20.871,16,20.871z"></path><title>Link options.</title></g></g></g></g><!--z-index:27--></g><g ></g><g ></g><g ></g></g></svg>