<svg xmlns="http://www.w3.org/2000/svg" xmlns:xlink="http://www.w3.org/1999/xlink" version="1.1" viewBox="0 0 2608 3954" style="background: #ffffff"><defs joint-selector="defs"></defs><g joint-selector="layers"  transform="matrix(1,0,0,1,0,0)"><g ></g><g ><!--z-index:0--><!--z-index:1--><!--z-index:2--><!--z-index:3--><!--z-index:4--><!--z-index:5--><!--z-index:6--><!--z-index:7--><!--z-index:8--><!--z-index:9--><!--z-index:10--><!--z-index:11--><!--z-index:12--><!--z-index:13--><!--z-index:14--><!--z-index:15--><!--z-index:16--><!--z-index:17--><!--z-index:18--><!--z-index:19--><!--z-index:20--><!--z-index:21--><!--z-index:22--><!--z-index:23--><!--z-index:24--><!--z-index:25--><!--z-index:26--><!--z-index:27--><!--z-index:28--><!--z-index:29--><!--z-index:30--><g   id="j_34"  transform="translate(20,3917.6)"><g id="v-433"><text  id="v-434" font-size="22px" xml:space="preserve" y="0.8em" font-weight="normal" text-anchor="start" fill="#aaaaaa" pointer-events="none" display="block" font-family="Arial"><tspan dy="0"  display="block">Wednesday, March 11, 2026 at 10:58 PM Moscow Standard Time</tspan></text></g></g><!--z-index:31--><g   id="j_33"  transform="translate(20,3891.2)"><g id="v-431"><text  id="v-432" font-size="22px" xml:space="preserve" y="0.8em" font-weight="normal" text-anchor="start" fill="#aaaaaa" pointer-events="none" display="block" font-family="Arial"><tspan dy="0"  display="block">Последовательность действий при добавлении доклада в конференцию докладчиком</tspan></text></g></g><!--z-index:32--><g   id="j_32"  transform="translate(20,3848)"><g id="v-429"><text  id="v-430" font-size="36px" xml:space="preserve" y="0.8em" font-weight="normal" text-anchor="start" fill="#000000" pointer-events="none" display="block" font-family="Arial"><tspan dy="0"  display="block">[Dynamic] Сайт конференции</tspan></text></g></g><!--z-index:33--><g   id="j_35"  transform="translate(1104,3329)" style=""><g  id="v-435" style="opacity: 1;"><rect  x="0" y="160" width="400" height="240" rx="70" id="v-437" stroke="#073b7c" stroke-width="2" pointer-events="visiblePainted" fill="#08428a" style="fill: rgb(8, 66, 138); stroke: rgb(7, 59, 124);"></rect><circle  cx="200" cy="88.88888888888889" r="88.88888888888889" id="v-436" stroke="#073b7c" stroke-width="2" pointer-events="visiblePainted" fill="#08428a" style="fill: rgb(8, 66, 138); stroke: rgb(7, 59, 124);"></circle><line  x1="80" y1="266.6666666666667" x2="80" y2="400" id="v-443" stroke="#073b7c" stroke-width="2" style="stroke: rgb(7, 59, 124);"></line><line  x1="320" y1="266.6666666666667" x2="320" y2="400" id="v-444" stroke="#073b7c" stroke-width="2" style="stroke: rgb(7, 59, 124);"></line><text  id="v-438" font-size="34" xml:space="preserve" y="0.8em" font-weight="bold" text-anchor="middle" pointer-events="visible" font-family="Arial" fill="#ffffff" transform="matrix(1,0,0,1,200,251.9)" style="fill: rgb(255, 255, 255);"><tspan dy="0" >Докладчик</tspan></text><text  id="v-439" font-size="17" xml:space="preserve" y="0.8em" text-anchor="middle" font-family="Arial" fill="#ffffff" transform="matrix(1,0,0,1,200,292.7)" style="fill: rgb(255, 255, 255);"><tspan dy="0" >[Person]</tspan></text><text  id="v-440" font-size="24" xml:space="preserve" display="none" y="0.8em" text-anchor="middle" font-family="Arial" fill="#ffffff" transform="matrix(1,0,0,1,200,313.1)" style="fill: rgb(255, 255, 255);"><tspan dy="0" style="fill-opacity: 0; stroke-opacity: 0;" >-</tspan></text><g  id="v-441" font-weight="normal" text-anchor="middle" color="#ffffff" transform="matrix(1,0,0,1,200,368)" display="none" style="fill: rgb(255, 255, 255);"><g ></g><g ></g><g ></g><g ></g></g><image  id="v-442"></image></g></g><!--z-index:34--><g   id="j_37"  transform="translate(309,309)" style=""><g id="v-452"><rect  id="v-453" width="1990" height="2811" rx="0" ry="0" fill="#ffffff" stroke="#0f6cab" stroke-width="1" stroke-dasharray="20,20" pointer-events="none"></rect><text  id="v-454" font-size="24px" xml:space="preserve" y="2772" font-weight="normal" fill="#0f6cab" text-anchor="start" pointer-events="visible" font-family="Arial" transform="matrix(1,0,0,1,15,0)"><tspan dy="0" >Сайт конференции</tspan></text><text  id="v-455" font-size="17px" xml:space="preserve" y="2796" font-weight="normal" fill="#0f6cab" text-anchor="start" pointer-events="visible" font-family="Arial" transform="matrix(1,0,0,1,15,0)"><tspan dy="0" >[Software System]</tspan></text><image  id="v-456" pointer-events="visible"></image></g></g><!--z-index:35--><g   id="j_36"  transform="translate(1079,2729)" style=""><g  id="v-445" style="opacity: 1;"><rect  id="v-446" rx="1" ry="1" stroke="#3c7fc0" stroke-width="2" pointer-events="visiblePainted" fill="#438dd5" width="450" height="300" style="fill: rgb(67, 141, 213); stroke: rgb(60, 127, 192);"></rect><text  id="v-447" font-size="34" xml:space="preserve" y="0.8em" font-weight="bold" text-anchor="middle" pointer-events="visible" font-family="Arial" fill="#ffffff" transform="matrix(1,0,0,1,225,102.5)" style="fill: rgb(255, 255, 255);"><tspan dy="0" >Web Application</tspan></text><text  id="v-448" font-size="17" xml:space="preserve" y="0.8em" text-anchor="middle" font-family="Arial" fill="#ffffff" transform="matrix(1,0,0,1,225,143.3)" style="fill: rgb(255, 255, 255);"><tspan dy="0" >[Container: React]</tspan></text><text  id="v-449" font-size="24" xml:space="preserve" y="0.8em" text-anchor="middle" font-family="Arial" fill="#ffffff" transform="matrix(1,0,0,1,225,173.7)" style="fill: rgb(255, 255, 255);"><tspan dy="0" >Веб-приложение</tspan></text><g  id="v-450" color="#ffffff" transform="matrix(1,0,0,1,0,268)" display="none" style="fill: rgb(255, 255, 255);"><g ></g><g ></g><g ></g><g ></g></g><image  id="v-451"></image></g></g><!--z-index:36--><g   id="j_38"  transform="translate(1079,2129)" style=""><g  id="v-457" style="opacity: 1;"><rect  id="v-458" rx="1" ry="1" stroke="#3c7fc0" stroke-width="2" pointer-events="visiblePainted" fill="#438dd5" width="450" height="300" style="fill: rgb(67, 141, 213); stroke: rgb(60, 127, 192);"></rect><text  id="v-459" font-size="34" xml:space="preserve" y="0.8em" font-weight="bold" text-anchor="middle" pointer-events="visible" font-family="Arial" fill="#ffffff" transform="matrix(1,0,0,1,225,102.5)" style="fill: rgb(255, 255, 255);"><tspan dy="0" >API Gateway</tspan></text><text  id="v-460" font-size="17" xml:space="preserve" y="0.8em" text-anchor="middle" font-family="Arial" fill="#ffffff" transform="matrix(1,0,0,1,225,143.3)" style="fill: rgb(255, 255, 255);"><tspan dy="0" >[Container: FastApi]</tspan></text><text  id="v-461" font-size="24" xml:space="preserve" y="0.8em" text-anchor="middle" font-family="Arial" fill="#ffffff" transform="matrix(1,0,0,1,225,173.7)" style="fill: rgb(255, 255, 255);"><tspan dy="0" >API-сервер</tspan></text><g  id="v-462" color="#ffffff" transform="matrix(1,0,0,1,0,268)" display="none" style="fill: rgb(255, 255, 255);"><g ></g><g ></g><g ></g><g ></g></g><image  id="v-463"></image></g></g><!--z-index:37--><g   id="j_39"  transform="translate(1079,929)" style=""><g  id="v-470" style="opacity: 1;"><rect  id="v-471" rx="1" ry="1" stroke="#3c7fc0" stroke-width="2" pointer-events="visiblePainted" fill="#438dd5" width="450" height="300" style="fill: rgb(67, 141, 213); stroke: rgb(60, 127, 192);"></rect><text  id="v-472" font-size="34" xml:space="preserve" y="0.8em" font-weight="bold" text-anchor="middle" pointer-events="visible" font-family="Arial" fill="#ffffff" transform="matrix(1,0,0,1,225,73.7)" style="fill: rgb(255, 255, 255);"><tspan dy="0" >User Service</tspan></text><text  id="v-473" font-size="17" xml:space="preserve" y="0.8em" text-anchor="middle" font-family="Arial" fill="#ffffff" transform="matrix(1,0,0,1,225,114.5)" style="fill: rgb(255, 255, 255);"><tspan dy="0" >[Container: Spring Boot / Kotlin]</tspan></text><text  id="v-474" font-size="24" xml:space="preserve" y="0.8em" text-anchor="middle" font-family="Arial" fill="#ffffff" transform="matrix(1,0,0,1,225,144.9)" style="fill: rgb(255, 255, 255);"><tspan dy="0" >Управляет регистрацией</tspan><tspan dy="1.2em" x="0" >пользователей, входом в систему и</tspan><tspan dy="1.2em" x="0" >поиском</tspan></text><g  id="v-475" color="#ffffff" transform="matrix(1,0,0,1,0,268)" display="none" style="fill: rgb(255, 255, 255);"><g ></g><g ></g><g ></g><g ></g></g><image  id="v-476"></image></g></g><!--z-index:38--><g   id="j_40"  transform="translate(1829,2129)" style=""><g  id="v-483" style="opacity: 1;"><rect  id="v-484" rx="1" ry="1" stroke="#3c7fc0" stroke-width="2" pointer-events="visiblePainted" fill="#438dd5" width="450" height="300" style="fill: rgb(67, 141, 213); stroke: rgb(60, 127, 192);"></rect><text  id="v-485" font-size="34" xml:space="preserve" y="0.8em" font-weight="bold" text-anchor="middle" pointer-events="visible" font-family="Arial" fill="#ffffff" transform="matrix(1,0,0,1,225,88.1)" style="fill: rgb(255, 255, 255);"><tspan dy="0" >Report Service</tspan></text><text  id="v-486" font-size="17" xml:space="preserve" y="0.8em" text-anchor="middle" font-family="Arial" fill="#ffffff" transform="matrix(1,0,0,1,225,128.9)" style="fill: rgb(255, 255, 255);"><tspan dy="0" >[Container: Spring Boot / Kotlin]</tspan></text><text  id="v-487" font-size="24" xml:space="preserve" y="0.8em" text-anchor="middle" font-family="Arial" fill="#ffffff" transform="matrix(1,0,0,1,225,159.3)" style="fill: rgb(255, 255, 255);"><tspan dy="0" >Управляет докладами: создание,</tspan><tspan dy="1.2em" x="0" >перечисление</tspan></text><g  id="v-488" color="#ffffff" transform="matrix(1,0,0,1,0,268)" display="none" style="fill: rgb(255, 255, 255);"><g ></g><g ></g><g ></g><g ></g></g><image  id="v-489"></image></g></g><!--z-index:39--><g   id="j_41"  transform="translate(1079,1529)" style=""><g  id="v-499" style="opacity: 1;"><rect  id="v-500" rx="1" ry="1" stroke="#3c7fc0" stroke-width="2" pointer-events="visiblePainted" fill="#438dd5" width="450" height="300" style="fill: rgb(67, 141, 213); stroke: rgb(60, 127, 192);"></rect><text  id="v-501" font-size="34" xml:space="preserve" y="0.8em" font-weight="bold" text-anchor="middle" pointer-events="visible" font-family="Arial" fill="#ffffff" transform="matrix(1,0,0,1,225,73.7)" style="fill: rgb(255, 255, 255);"><tspan dy="0" >Conference Service</tspan></text><text  id="v-502" font-size="17" xml:space="preserve" y="0.8em" text-anchor="middle" font-family="Arial" fill="#ffffff" transform="matrix(1,0,0,1,225,114.5)" style="fill: rgb(255, 255, 255);"><tspan dy="0" >[Container: Spring Boot / Kotlin]</tspan></text><text  id="v-503" font-size="24" xml:space="preserve" y="0.8em" text-anchor="middle" font-family="Arial" fill="#ffffff" transform="matrix(1,0,0,1,225,144.9)" style="fill: rgb(255, 255, 255);"><tspan dy="0" >Управляет конференциями и</tspan><tspan dy="1.2em" x="0" >связями между докладами и</tspan><tspan dy="1.2em" x="0" >конференциями</tspan></text><g  id="v-504" color="#ffffff" transform="matrix(1,0,0,1,0,268)" display="none" style="fill: rgb(255, 255, 255);"><g ></g><g ></g><g ></g><g ></g></g><image  id="v-505"></image></g></g><!--z-index:40--><g   id="j_42"  transform="translate(1079,329)" style=""><g  id="v-509" style="opacity: 1;"><rect  id="v-510" rx="1" ry="1" stroke="#3c7fc0" stroke-width="2" pointer-events="visiblePainted" fill="#438dd5" width="450" height="300" style="fill: rgb(67, 141, 213); stroke: rgb(60, 127, 192);"></rect><text  id="v-511" font-size="34" xml:space="preserve" y="0.8em" font-weight="bold" text-anchor="middle" pointer-events="visible" font-family="Arial" fill="#ffffff" transform="matrix(1,0,0,1,225,102.5)" style="fill: rgb(255, 255, 255);"><tspan dy="0" >User Database</tspan></text><text  id="v-512" font-size="17" xml:space="preserve" y="0.8em" text-anchor="middle" font-family="Arial" fill="#ffffff" transform="matrix(1,0,0,1,225,143.3)" style="fill: rgb(255, 255, 255);"><tspan dy="0" >[Container: PostgreSQL]</tspan></text><text  id="v-513" font-size="24" xml:space="preserve" y="0.8em" text-anchor="middle" font-family="Arial" fill="#ffffff" transform="matrix(1,0,0,1,225,173.7)" style="fill: rgb(255, 255, 255);"><tspan dy="0" >Хранит данные о пользователях</tspan></text><g  id="v-514" color="#ffffff" transform="matrix(1,0,0,1,0,268)" display="none" style="fill: rgb(255, 255, 255);"><g ></g><g ></g><g ></g><g ></g></g><image  id="v-515"></image></g></g><!--z-index:41--><g   id="j_43"  transform="translate(1829,2729)" style=""><g  id="v-519" style="opacity: 1;"><rect  id="v-520" rx="1" ry="1" stroke="#3c7fc0" stroke-width="2" pointer-events="visiblePainted" fill="#438dd5" width="450" height="300" style="fill: rgb(67, 141, 213); stroke: rgb(60, 127, 192);"></rect><text  id="v-521" font-size="34" xml:space="preserve" y="0.8em" font-weight="bold" text-anchor="middle" pointer-events="visible" font-family="Arial" fill="#ffffff" transform="matrix(1,0,0,1,225,102.5)" style="fill: rgb(255, 255, 255);"><tspan dy="0" >Report Database</tspan></text><text  id="v-522" font-size="17" xml:space="preserve" y="0.8em" text-anchor="middle" font-family="Arial" fill="#ffffff" transform="matrix(1,0,0,1,225,143.3)" style="fill: rgb(255, 255, 255);"><tspan dy="0" >[Container: PostgreSQL]</tspan></text><text  id="v-523" font-size="24" xml:space="preserve" y="0.8em" text-anchor="middle" font-family="Arial" fill="#ffffff" transform="matrix(1,0,0,1,225,173.7)" style="fill: rgb(255, 255, 255);"><tspan dy="0" >Хранит данные о докладах</tspan></text><g  id="v-524" color="#ffffff" transform="matrix(1,0,0,1,0,268)" display="none" style="fill: rgb(255, 255, 255);"><g ></g><g ></g><g ></g><g ></g></g><image  id="v-525"></image></g></g><!--z-index:42--><g   id="j_44"  transform="translate(329,2129)" style=""><g  id="v-532" style="opacity: 1;"><rect  id="v-533" rx="1" ry="1" stroke="#3c7fc0" stroke-width="2" pointer-events="visiblePainted" fill="#438dd5" width="450" height="300" style="fill: rgb(67, 141, 213); stroke: rgb(60, 127, 192);"></rect><text  id="v-534" font-size="34" xml:space="preserve" y="0.8em" font-weight="bold" text-anchor="middle" pointer-events="visible" font-family="Arial" fill="#ffffff" transform="matrix(1,0,0,1,225,88.1)" style="fill: rgb(255, 255, 255);"><tspan dy="0" >Conference Database</tspan></text><text  id="v-535" font-size="17" xml:space="preserve" y="0.8em" text-anchor="middle" font-family="Arial" fill="#ffffff" transform="matrix(1,0,0,1,225,128.9)" style="fill: rgb(255, 255, 255);"><tspan dy="0" >[Container: PostgreSQL]</tspan></text><text  id="v-536" font-size="24" xml:space="preserve" y="0.8em" text-anchor="middle" font-family="Arial" fill="#ffffff" transform="matrix(1,0,0,1,225,159.3)" style="fill: rgb(255, 255, 255);"><tspan dy="0" >Хранит данные конференции и</tspan><tspan dy="1.2em" x="0" >связи</tspan></text><g  id="v-537" color="#ffffff" transform="matrix(1,0,0,1,0,268)" display="none" style="fill: rgb(255, 255, 255);"><g ></g><g ></g><g ></g><g ></g></g><image  id="v-538"></image></g></g><!--z-index:43--><g   id="j_45" ><path  stroke="#707070" d="M 1355 3345 L 1448 3212 C 1452 3206.6666666666665 1452.6666666666665 3201 1450 3195 L 1373 3029" id="v-552" stroke-width="2" stroke-dasharray="30 30" fill="none"></path><path  fill="black" stroke="black" d="M 0 0 0 0" transform="matrix(0.5759214086193164,-0.8175050648735716,0.8175050648735716,0.5759214086193164,1354.7286376953125,3344.9130859375)"></path><path  fill="#707070" stroke="#707070" d="M 20 0 L 0 10 L 20 20 z" id="v-554" transform="matrix(0.4190581503025473,0.9079593970354664,-0.9079593970354664,0.4190581503025473,1382.3103991860792,3024.8094143703697)"></path><path  d="M 1355 3345 L 1448 3212 C 1452 3206.6666666666665 1452.6666666666665 3201 1450 3195 L 1373 3029" id="v-553" fill="none" style="pointer-events: visiblepainted; cursor: auto;"></path><g ><g id="v-545"  label-idx="0" cursor="move" transform="matrix(1,0,0,1,1449.4429931640625,3193.799072265625)"><rect joint-selector="rect" id="v-548" fill="#ffffff" rx="3" ry="3" pointer-events="none" width="200.8102264404297" height="86.58784866333008" transform="matrix(1,0,0,1,-98.4,-43.3)"></rect><text joint-selector="text" id="v-547" font-size="24px" xml:space="preserve" y="0.8em" fill="#707070" text-anchor="middle" pointer-events="none" font-family="Arial" font-weight="normal" transform="matrix(1,0,0,1,0,-40.8)"><tspan dy="0" >1: Нажимает</tspan><tspan dy="1.2em" x="0" >'Добавить доклад</tspan><tspan dy="1.2em" x="0" >в конференцию'</tspan></text></g><g id="v-546"  label-idx="1" cursor="move" transform="matrix(1,0,0,1,1439.4429931640625,3248.9990234375)"><rect joint-selector="rect" id="v-550" fill="#ffffff" rx="3" ry="3"  width="0" height="0" transform="matrix(1,0,0,1,0,0)" display="none"></rect><text joint-selector="text" id="v-549" fill="#000000" font-size="14" text-anchor="middle" pointer-events="none"></text></g></g><g  display="none" style="display: none;"><g  transform="translate(1454, 3204)" id="v-852"><circle  idx="0" r="10"></circle><path  idx="0" d="M16,5.333c-7.732,0-14,4.701-14,10.5c0,1.982,0.741,3.833,2.016,5.414L2,25.667l5.613-1.441c2.339,1.317,5.237,2.107,8.387,2.107c7.732,0,14-4.701,14-10.5C30,10.034,23.732,5.333,16,5.333z" transform="translate(5, -33)"></path><path  idx="0" transform="scale(.8) translate(9.5, -37)" d="M24.778,21.419 19.276,15.917 24.777,10.415 21.949,7.585 16.447,13.087 10.945,7.585 8.117,10.415 13.618,15.917 8.116,21.419 10.946,24.248 16.447,18.746 21.948,24.248z"><title>Remove vertex.</title></path></g></g><g  id="v-556" display="none"><g  id="v-543"><path  end="source" d="M 26 0 L 0 13 L 26 26 z"></path></g><g  id="v-544"><path  end="target" d="M 26 0 L 0 13 L 26 26 z"></path></g></g><g  id="v-555" display="none"><g  id="v-542" transform="translate(1377.9219490686928, 3312.219148106063) "><g  event="remove"><circle r="11"></circle><path transform="scale(.8) translate(-16, -16)" d="M24.778,21.419 19.276,15.917 24.777,10.415 21.949,7.585 16.447,13.087 10.945,7.585 8.117,10.415 13.618,15.917 8.116,21.419 10.946,24.248 16.447,18.746 21.948,24.248z"></path><title>Remove link.</title></g><g  event="link:options"><circle r="11" transform="translate(25)"></circle><path fill="white" transform="scale(.55) translate(29, -16)" d="M31.229,17.736c0.064-0.571,0.104-1.148,0.104-1.736s-0.04-1.166-0.104-1.737l-4.377-1.557c-0.218-0.716-0.504-1.401-0.851-2.05l1.993-4.192c-0.725-0.91-1.549-1.734-2.458-2.459l-4.193,1.994c-0.647-0.347-1.334-0.632-2.049-0.849l-1.558-4.378C17.165,0.708,16.588,0.667,16,0.667s-1.166,0.041-1.737,0.105L12.707,5.15c-0.716,0.217-1.401,0.502-2.05,0.849L6.464,4.005C5.554,4.73,4.73,5.554,4.005,6.464l1.994,4.192c-0.347,0.648-0.632,1.334-0.849,2.05l-4.378,1.557C0.708,14.834,0.667,15.412,0.667,16s0.041,1.165,0.105,1.736l4.378,1.558c0.217,0.715,0.502,1.401,0.849,2.049l-1.994,4.193c0.725,0.909,1.549,1.733,2.459,2.458l4.192-1.993c0.648,0.347,1.334,0.633,2.05,0.851l1.557,4.377c0.571,0.064,1.148,0.104,1.737,0.104c0.588,0,1.165-0.04,1.736-0.104l1.558-4.377c0.715-0.218,1.399-0.504,2.049-0.851l4.193,1.993c0.909-0.725,1.733-1.549,2.458-2.458l-1.993-4.193c0.347-0.647,0.633-1.334,0.851-2.049L31.229,17.736zM16,20.871c-2.69,0-4.872-2.182-4.872-4.871c0-2.69,2.182-4.872,4.872-4.872c2.689,0,4.871,2.182,4.871,4.872C20.871,18.689,18.689,20.871,16,20.871z"></path><title>Link options.</title></g></g></g></g><!--z-index:44--><g   id="j_46" ><path  stroke="#707070" d="M 1379 2729 L 1450 2588 C 1452.6666666666665 2582 1452.6666666666665 2576 1450 2570 L 1379 2429" id="v-572" stroke-width="2" stroke-dasharray="30 30" fill="none"></path><path  fill="black" stroke="black" d="M 0 0 0 0" transform="matrix(0.4472137875035034,-0.8944270949981173,0.8944270949981173,0.4472137875035034,1379,2729)"></path><path  fill="#707070" stroke="#707070" d="M 20 0 L 0 10 L 20 20 z" id="v-574" transform="matrix(0.4472136088532365,0.8944271843232765,-0.8944271843232765,0.4472136088532365,1387.9443037234505,2424.527928005735)"></path><path  d="M 1379 2729 L 1450 2588 C 1452.6666666666665 2582 1452.6666666666665 2576 1450 2570 L 1379 2429" id="v-573" fill="none" style="pointer-events: visiblepainted; cursor: auto;"></path><g ><g id="v-563"  label-idx="0" cursor="move" transform="matrix(1,0,0,1,1452,2579)"><rect joint-selector="rect" id="v-567" fill="#ffffff" rx="3" ry="3" pointer-events="none" width="207.00613403320312" height="57.787845611572266" transform="matrix(1,0,0,1,-104.7,-28.9)"></rect><text joint-selector="text" id="v-566" font-size="24px" xml:space="preserve" y="0.8em" fill="#707070" text-anchor="middle" pointer-events="none" font-family="Arial" font-weight="normal" transform="matrix(1,0,0,1,0,-26.4)"><tspan dy="0" >2: POST /api/confe</tspan><tspan dy="1.2em" x="0" >rences/{id}/reports</tspan></text></g><g id="v-564"  label-idx="1" cursor="move" transform="matrix(1,0,0,1,1452,2619.800048828125)"><rect joint-selector="rect" id="v-569" fill="#ffffff" rx="3" ry="3" pointer-events="none" width="117.71688842773438" height="18.11740207672119" transform="matrix(1,0,0,1,-57.6,-9.1)"></rect><text joint-selector="text" id="v-568" font-size="17px" xml:space="preserve" y="0.8em" fill="#707070" text-anchor="middle" pointer-events="none" font-family="Arial" font-weight="normal" transform="matrix(1,0,0,1,0,-8.2)"><tspan dy="0" >[HTTPS/REST]</tspan></text></g><g id="v-565"  label-idx="2" cursor="move" transform="matrix(1,0,0,1,1442,2628.199951171875)"><rect joint-selector="rect" id="v-571" fill="#ffffff" rx="3" ry="3"  width="0" height="0" transform="matrix(1,0,0,1,0,0)" display="none"></rect><text joint-selector="text" id="v-570" fill="#000000" font-size="14" text-anchor="middle" pointer-events="none"></text></g></g><g  display="none" style="display: none;"><g  transform="translate(1454, 2579)" id="v-856"><circle  idx="0" r="10"></circle><path  idx="0" d="M16,5.333c-7.732,0-14,4.701-14,10.5c0,1.982,0.741,3.833,2.016,5.414L2,25.667l5.613-1.441c2.339,1.317,5.237,2.107,8.387,2.107c7.732,0,14-4.701,14-10.5C30,10.034,23.732,5.333,16,5.333z" transform="translate(5, -33)"></path><path  idx="0" transform="scale(.8) translate(9.5, -37)" d="M24.778,21.419 19.276,15.917 24.777,10.415 21.949,7.585 16.447,13.087 10.945,7.585 8.117,10.415 13.618,15.917 8.116,21.419 10.946,24.248 16.447,18.746 21.948,24.248z"><title>Remove vertex.</title></path></g></g><g  id="v-576" display="none"><g  id="v-561"><path  end="source" d="M 26 0 L 0 13 L 26 26 z"></path></g><g  id="v-562"><path  end="target" d="M 26 0 L 0 13 L 26 26 z"></path></g></g><g  id="v-575" display="none"><g  id="v-560" transform="translate(1396.989823158115, 2693.2737314747296) "><g  event="remove"><circle r="11"></circle><path transform="scale(.8) translate(-16, -16)" d="M24.778,21.419 19.276,15.917 24.777,10.415 21.949,7.585 16.447,13.087 10.945,7.585 8.117,10.415 13.618,15.917 8.116,21.419 10.946,24.248 16.447,18.746 21.948,24.248z"></path><title>Remove link.</title></g><g  event="link:options"><circle r="11" transform="translate(25)"></circle><path fill="white" transform="scale(.55) translate(29, -16)" d="M31.229,17.736c0.064-0.571,0.104-1.148,0.104-1.736s-0.04-1.166-0.104-1.737l-4.377-1.557c-0.218-0.716-0.504-1.401-0.851-2.05l1.993-4.192c-0.725-0.91-1.549-1.734-2.458-2.459l-4.193,1.994c-0.647-0.347-1.334-0.632-2.049-0.849l-1.558-4.378C17.165,0.708,16.588,0.667,16,0.667s-1.166,0.041-1.737,0.105L12.707,5.15c-0.716,0.217-1.401,0.502-2.05,0.849L6.464,4.005C5.554,4.73,4.73,5.554,4.005,6.464l1.994,4.192c-0.347,0.648-0.632,1.334-0.849,2.05l-4.378,1.557C0.708,14.834,0.667,15.412,0.667,16s0.041,1.165,0.105,1.736l4.378,1.558c0.217,0.715,0.502,1.401,0.849,2.049l-1.994,4.193c0.725,0.909,1.549,1.733,2.459,2.458l4.192-1.993c0.648,0.347,1.334,0.633,2.05,0.851l1.557,4.377c0.571,0.064,1.148,0.104,1.737,0.104c0.588,0,1.165-0.04,1.736-0.104l1.558-4.377c0.715-0.218,1.399-0.504,2.049-0.851l4.193,1.993c0.909-0.725,1.733-1.549,2.458-2.458l-1.993-4.193c0.347-0.647,0.633-1.334,0.851-2.049L31.229,17.736zM16,20.871c-2.69,0-4.872-2.182-4.872-4.871c0-2.69,2.182-4.872,4.872-4.872c2.689,0,4.871,2.182,4.871,4.872C20.871,18.689,18.689,20.871,16,20.871z"></path><title>Link options.</title></g></g></g></g><!--z-index:45--><g   id="j_47" ><path  stroke="#707070" d="M 1379 2129 L 1450 1988 C 1452.6666666666665 1982 1452.6666666666665 1976 1450 1970 L 1379 1829" id="v-592" stroke-width="2" stroke-dasharray="30 30" fill="none"></path><path  fill="black" stroke="black" d="M 0 0 0 0" transform="matrix(0.4472137875035034,-0.8944270949981173,0.8944270949981173,0.4472137875035034,1379,2129)"></path><path  fill="#707070" stroke="#707070" d="M 20 0 L 0 10 L 20 20 z" id="v-594" transform="matrix(0.4472136088532365,0.8944271843232765,-0.8944271843232765,0.4472136088532365,1387.9443037234505,1824.5278059354223)"></path><path  d="M 1379 2129 L 1450 1988 C 1452.6666666666665 1982 1452.6666666666665 1976 1450 1970 L 1379 1829" id="v-593" fill="none" style="pointer-events: visiblepainted; cursor: auto;"></path><g ><g id="v-583"  label-idx="0" cursor="move" transform="matrix(1,0,0,1,1452,1979)"><rect joint-selector="rect" id="v-587" fill="#ffffff" rx="3" ry="3" pointer-events="none" width="205.15138244628906" height="111.76436233520508" transform="matrix(1,0,0,1,-102,-55.8)"></rect><text joint-selector="text" id="v-586" font-size="24px" xml:space="preserve" y="0.8em" fill="#707070" text-anchor="middle" pointer-events="none" font-family="Arial" font-weight="normal" transform="matrix(1,0,0,1,0,-53.3)"><tspan dy="0" >3:</tspan><tspan dy="1.2em" x="0" >Перенаправляет</tspan><tspan dy="1.2em" x="0" >запрос в</tspan><tspan dy="1.2em" x="0" >ConferenceService</tspan></text></g><g id="v-584"  label-idx="1" cursor="move" transform="matrix(1,0,0,1,1452,2048.60009765625)"><rect joint-selector="rect" id="v-589" fill="#ffffff" rx="3" ry="3" pointer-events="none" width="57.29158401489258" height="18.11740207672119" transform="matrix(1,0,0,1,-27.4,-9.1)"></rect><text joint-selector="text" id="v-588" font-size="17px" xml:space="preserve" y="0.8em" fill="#707070" text-anchor="middle" pointer-events="none" font-family="Arial" font-weight="normal" transform="matrix(1,0,0,1,0,-8.2)"><tspan dy="0" >[REST]</tspan></text></g><g id="v-585"  label-idx="2" cursor="move" transform="matrix(1,0,0,1,1442,2057)"><rect joint-selector="rect" id="v-591" fill="#ffffff" rx="3" ry="3"  width="0" height="0" transform="matrix(1,0,0,1,0,0)" display="none"></rect><text joint-selector="text" id="v-590" fill="#000000" font-size="14" text-anchor="middle" pointer-events="none"></text></g></g><g  display="none" style="display: none;"><g  transform="translate(1454, 1979)" id="v-858"><circle  idx="0" r="10"></circle><path  idx="0" d="M16,5.333c-7.732,0-14,4.701-14,10.5c0,1.982,0.741,3.833,2.016,5.414L2,25.667l5.613-1.441c2.339,1.317,5.237,2.107,8.387,2.107c7.732,0,14-4.701,14-10.5C30,10.034,23.732,5.333,16,5.333z" transform="translate(5, -33)"></path><path  idx="0" transform="scale(.8) translate(9.5, -37)" d="M24.778,21.419 19.276,15.917 24.777,10.415 21.949,7.585 16.447,13.087 10.945,7.585 8.117,10.415 13.618,15.917 8.116,21.419 10.946,24.248 16.447,18.746 21.948,24.248z"><title>Remove vertex.</title></path></g></g><g  id="v-596" display="none"><g  id="v-581"><path  end="source" d="M 26 0 L 0 13 L 26 26 z"></path></g><g  id="v-582"><path  end="target" d="M 26 0 L 0 13 L 26 26 z"></path></g></g><g  id="v-595" display="none"><g  id="v-580" transform="translate(1396.989823158115, 2093.273731474729) "><g  event="remove"><circle r="11"></circle><path transform="scale(.8) translate(-16, -16)" d="M24.778,21.419 19.276,15.917 24.777,10.415 21.949,7.585 16.447,13.087 10.945,7.585 8.117,10.415 13.618,15.917 8.116,21.419 10.946,24.248 16.447,18.746 21.948,24.248z"></path><title>Remove link.</title></g><g  event="link:options"><circle r="11" transform="translate(25)"></circle><path fill="white" transform="scale(.55) translate(29, -16)" d="M31.229,17.736c0.064-0.571,0.104-1.148,0.104-1.736s-0.04-1.166-0.104-1.737l-4.377-1.557c-0.218-0.716-0.504-1.401-0.851-2.05l1.993-4.192c-0.725-0.91-1.549-1.734-2.458-2.459l-4.193,1.994c-0.647-0.347-1.334-0.632-2.049-0.849l-1.558-4.378C17.165,0.708,16.588,0.667,16,0.667s-1.166,0.041-1.737,0.105L12.707,5.15c-0.716,0.217-1.401,0.502-2.05,0.849L6.464,4.005C5.554,4.73,4.73,5.554,4.005,6.464l1.994,4.192c-0.347,0.648-0.632,1.334-0.849,2.05l-4.378,1.557C0.708,14.834,0.667,15.412,0.667,16s0.041,1.165,0.105,1.736l4.378,1.558c0.217,0.715,0.502,1.401,0.849,2.049l-1.994,4.193c0.725,0.909,1.549,1.733,2.459,2.458l4.192-1.993c0.648,0.347,1.334,0.633,2.05,0.851l1.557,4.377c0.571,0.064,1.148,0.104,1.737,0.104c0.588,0,1.165-0.04,1.736-0.104l1.558-4.377c0.715-0.218,1.399-0.504,2.049-0.851l4.193,1.993c0.909-0.725,1.733-1.549,2.458-2.458l-1.993-4.193c0.347-0.647,0.633-1.334,0.851-2.049L31.229,17.736zM16,20.871c-2.69,0-4.872-2.182-4.872-4.871c0-2.69,2.182-4.872,4.872-4.872c2.689,0,4.871,2.182,4.871,4.872C20.871,18.689,18.689,20.871,16,20.871z"></path><title>Link options.</title></g></g></g></g><!--z-index:46--><g   id="j_48" ><path  stroke="#707070" d="M 1405 1829 L 1580 2088 C 1583.5304952445576 2093.420214277636 1588.5304952445576 2097.420214277636 1595 2100 L 1829 2191" id="v-612" stroke-width="2" stroke-dasharray="30 30" fill="none"></path><path  fill="black" stroke="black" d="M 0 0 0 0" transform="matrix(0.5591078978982587,0.8290949031973303,-0.8290949031973303,0.5591078978982587,1405.1539306640625,1829)"></path><path  fill="#707070" stroke="#707070" d="M 20 0 L 0 10 L 20 20 z" id="v-614" transform="matrix(-0.9316041157754884,-0.36347458160120405,0.36347458160120405,-0.9316041157754884,1825.3652553026805,2200.5301326768918)"></path><path  d="M 1405 1829 L 1580 2088 C 1583.5304952445576 2093.420214277636 1588.5304952445576 2097.420214277636 1595 2100 L 1829 2191" id="v-613" fill="none" style="pointer-events: visiblepainted; cursor: auto;"></path><g ><g id="v-603"  label-idx="0" cursor="move" transform="matrix(1,0,0,1,1568.2467041015625,2070.60498046875)"><rect joint-selector="rect" id="v-607" fill="#ffffff" rx="3" ry="3" pointer-events="none" width="193.1573944091797" height="144.1878433227539" transform="matrix(1,0,0,1,-97,-72.1)"></rect><text joint-selector="text" id="v-606" font-size="24px" xml:space="preserve" y="0.8em" fill="#707070" text-anchor="middle" pointer-events="none" font-family="Arial" font-weight="normal" transform="matrix(1,0,0,1,0,-69.6)"><tspan dy="0" >4: GET</tspan><tspan dy="1.2em" x="0" >/reports/{reportId}</tspan><tspan dy="1.2em" x="0" >(проверка</tspan><tspan dy="1.2em" x="0" >существования</tspan><tspan dy="1.2em" x="0" >доклада)</tspan></text></g><g id="v-604"  label-idx="1" cursor="move" transform="matrix(1,0,0,1,1568.2467041015625,2154.60498046875)"><rect joint-selector="rect" id="v-609" fill="#ffffff" rx="3" ry="3" pointer-events="none" width="57.29158401489258" height="18.11740207672119" transform="matrix(1,0,0,1,-27.4,-9.1)"></rect><text joint-selector="text" id="v-608" font-size="17px" xml:space="preserve" y="0.8em" fill="#707070" text-anchor="middle" pointer-events="none" font-family="Arial" font-weight="normal" transform="matrix(1,0,0,1,0,-8.2)"><tspan dy="0" >[REST]</tspan></text></g><g id="v-605"  label-idx="2" cursor="move" transform="matrix(1,0,0,1,1558.2467041015625,2163.005126953125)"><rect joint-selector="rect" id="v-611" fill="#ffffff" rx="3" ry="3"  width="0" height="0" transform="matrix(1,0,0,1,0,0)" display="none"></rect><text joint-selector="text" id="v-610" fill="#000000" font-size="14" text-anchor="middle" pointer-events="none"></text></g></g><g  display="none" style="display: none;"><g  transform="translate(1585.2957428668365, 2096.1303214164545)" id="v-860"><circle  idx="0" r="10"></circle><path  idx="0" d="M16,5.333c-7.732,0-14,4.701-14,10.5c0,1.982,0.741,3.833,2.016,5.414L2,25.667l5.613-1.441c2.339,1.317,5.237,2.107,8.387,2.107c7.732,0,14-4.701,14-10.5C30,10.034,23.732,5.333,16,5.333z" transform="translate(5, -33)"></path><path  idx="0" transform="scale(.8) translate(9.5, -37)" d="M24.778,21.419 19.276,15.917 24.777,10.415 21.949,7.585 16.447,13.087 10.945,7.585 8.117,10.415 13.618,15.917 8.116,21.419 10.946,24.248 16.447,18.746 21.948,24.248z"><title>Remove vertex.</title></path></g></g><g  id="v-616" display="none"><g  id="v-601"><path  end="source" d="M 26 0 L 0 13 L 26 26 z"></path></g><g  id="v-602"><path  end="target" d="M 26 0 L 0 13 L 26 26 z"></path></g></g><g  id="v-615" display="none"><g  id="v-600" transform="translate(1427.3942964511195, 1862.143558747657) "><g  event="remove"><circle r="11"></circle><path transform="scale(.8) translate(-16, -16)" d="M24.778,21.419 19.276,15.917 24.777,10.415 21.949,7.585 16.447,13.087 10.945,7.585 8.117,10.415 13.618,15.917 8.116,21.419 10.946,24.248 16.447,18.746 21.948,24.248z"></path><title>Remove link.</title></g><g  event="link:options"><circle r="11" transform="translate(25)"></circle><path fill="white" transform="scale(.55) translate(29, -16)" d="M31.229,17.736c0.064-0.571,0.104-1.148,0.104-1.736s-0.04-1.166-0.104-1.737l-4.377-1.557c-0.218-0.716-0.504-1.401-0.851-2.05l1.993-4.192c-0.725-0.91-1.549-1.734-2.458-2.459l-4.193,1.994c-0.647-0.347-1.334-0.632-2.049-0.849l-1.558-4.378C17.165,0.708,16.588,0.667,16,0.667s-1.166,0.041-1.737,0.105L12.707,5.15c-0.716,0.217-1.401,0.502-2.05,0.849L6.464,4.005C5.554,4.73,4.73,5.554,4.005,6.464l1.994,4.192c-0.347,0.648-0.632,1.334-0.849,2.05l-4.378,1.557C0.708,14.834,0.667,15.412,0.667,16s0.041,1.165,0.105,1.736l4.378,1.558c0.217,0.715,0.502,1.401,0.849,2.049l-1.994,4.193c0.725,0.909,1.549,1.733,2.459,2.458l4.192-1.993c0.648,0.347,1.334,0.633,2.05,0.851l1.557,4.377c0.571,0.064,1.148,0.104,1.737,0.104c0.588,0,1.165-0.04,1.736-0.104l1.558-4.377c0.715-0.218,1.399-0.504,2.049-0.851l4.193,1.993c0.909-0.725,1.733-1.549,2.458-2.458l-1.993-4.193c0.347-0.647,0.633-1.334,0.851-2.049L31.229,17.736zM16,20.871c-2.69,0-4.872-2.182-4.872-4.871c0-2.69,2.182-4.872,4.872-4.872c2.689,0,4.871,2.182,4.871,4.872C20.871,18.689,18.689,20.871,16,20.871z"></path><title>Link options.</title></g></g></g></g><!--z-index:47--><g   id="j_49" ><path  stroke="#707070" d="M 1979 2429 L 1908 2570 C 1905.3333333333333 2576 1905.3333333333333 2582 1908 2588 L 1979 2729" id="v-632" stroke-width="2" stroke-dasharray="30 30" fill="none"></path><path  fill="black" stroke="black" d="M 0 0 0 0" transform="matrix(-0.4472135493031434,0.8944272140983217,-0.8944272140983217,-0.4472135493031434,1979,2429)"></path><path  fill="#707070" stroke="#707070" d="M 20 0 L 0 10 L 20 20 z" id="v-634" transform="matrix(-0.4472135493031436,-0.8944272140983216,0.8944272140983216,-0.4472135493031436,1970.0556953832981,2733.472071696515)"></path><path  d="M 1979 2429 L 1908 2570 C 1905.3333333333333 2576 1905.3333333333333 2582 1908 2588 L 1979 2729" id="v-633" fill="none" style="pointer-events: visiblepainted; cursor: auto;"></path><g ><g id="v-623"  label-idx="0" cursor="move" transform="matrix(1,0,0,1,1906,2579)"><rect joint-selector="rect" id="v-627" fill="#ffffff" rx="3" ry="3" pointer-events="none" width="214.58859252929688" height="82.9643669128418" transform="matrix(1,0,0,1,-106.4,-41.4)"></rect><text joint-selector="text" id="v-626" font-size="24px" xml:space="preserve" y="0.8em" fill="#707070" text-anchor="middle" pointer-events="none" font-family="Arial" font-weight="normal" transform="matrix(1,0,0,1,0,-38.9)"><tspan dy="0" >5: SELECT * FROM</tspan><tspan dy="1.2em" x="0" >reports WHERE id</tspan><tspan dy="1.2em" x="0" >= ?</tspan></text></g><g id="v-624"  label-idx="1" cursor="move" transform="matrix(1,0,0,1,1906,2634.199951171875)"><rect joint-selector="rect" id="v-629" fill="#ffffff" rx="3" ry="3" pointer-events="none" width="56.34557342529297" height="18.11740207672119" transform="matrix(1,0,0,1,-26.9,-9.1)"></rect><text joint-selector="text" id="v-628" font-size="17px" xml:space="preserve" y="0.8em" fill="#707070" text-anchor="middle" pointer-events="none" font-family="Arial" font-weight="normal" transform="matrix(1,0,0,1,0,-8.2)"><tspan dy="0" >[JDBC]</tspan></text></g><g id="v-625"  label-idx="2" cursor="move" transform="matrix(1,0,0,1,1896,2642.60009765625)"><rect joint-selector="rect" id="v-631" fill="#ffffff" rx="3" ry="3"  width="0" height="0" transform="matrix(1,0,0,1,0,0)" display="none"></rect><text joint-selector="text" id="v-630" fill="#000000" font-size="14" text-anchor="middle" pointer-events="none"></text></g></g><g  display="none" style="display: none;"><g  transform="translate(1904, 2579)" id="v-862"><circle  idx="0" r="10"></circle><path  idx="0" d="M16,5.333c-7.732,0-14,4.701-14,10.5c0,1.982,0.741,3.833,2.016,5.414L2,25.667l5.613-1.441c2.339,1.317,5.237,2.107,8.387,2.107c7.732,0,14-4.701,14-10.5C30,10.034,23.732,5.333,16,5.333z" transform="translate(5, -33)"></path><path  idx="0" transform="scale(.8) translate(9.5, -37)" d="M24.778,21.419 19.276,15.917 24.777,10.415 21.949,7.585 16.447,13.087 10.945,7.585 8.117,10.415 13.618,15.917 8.116,21.419 10.946,24.248 16.447,18.746 21.948,24.248z"><title>Remove vertex.</title></path></g></g><g  id="v-636" display="none"><g  id="v-621"><path  end="source" d="M 26 0 L 0 13 L 26 26 z"></path></g><g  id="v-622"><path  end="target" d="M 26 0 L 0 13 L 26 26 z"></path></g></g><g  id="v-635" display="none"><g  id="v-620" transform="translate(1961.0101768418851, 2464.726268525271) "><g  event="remove"><circle r="11"></circle><path transform="scale(.8) translate(-16, -16)" d="M24.778,21.419 19.276,15.917 24.777,10.415 21.949,7.585 16.447,13.087 10.945,7.585 8.117,10.415 13.618,15.917 8.116,21.419 10.946,24.248 16.447,18.746 21.948,24.248z"></path><title>Remove link.</title></g><g  event="link:options"><circle r="11" transform="translate(25)"></circle><path fill="white" transform="scale(.55) translate(29, -16)" d="M31.229,17.736c0.064-0.571,0.104-1.148,0.104-1.736s-0.04-1.166-0.104-1.737l-4.377-1.557c-0.218-0.716-0.504-1.401-0.851-2.05l1.993-4.192c-0.725-0.91-1.549-1.734-2.458-2.459l-4.193,1.994c-0.647-0.347-1.334-0.632-2.049-0.849l-1.558-4.378C17.165,0.708,16.588,0.667,16,0.667s-1.166,0.041-1.737,0.105L12.707,5.15c-0.716,0.217-1.401,0.502-2.05,0.849L6.464,4.005C5.554,4.73,4.73,5.554,4.005,6.464l1.994,4.192c-0.347,0.648-0.632,1.334-0.849,2.05l-4.378,1.557C0.708,14.834,0.667,15.412,0.667,16s0.041,1.165,0.105,1.736l4.378,1.558c0.217,0.715,0.502,1.401,0.849,2.049l-1.994,4.193c0.725,0.909,1.549,1.733,2.459,2.458l4.192-1.993c0.648,0.347,1.334,0.633,2.05,0.851l1.557,4.377c0.571,0.064,1.148,0.104,1.737,0.104c0.588,0,1.165-0.04,1.736-0.104l1.558-4.377c0.715-0.218,1.399-0.504,2.049-0.851l4.193,1.993c0.909-0.725,1.733-1.549,2.458-2.458l-1.993-4.193c0.347-0.647,0.633-1.334,0.851-2.049L31.229,17.736zM16,20.871c-2.69,0-4.872-2.182-4.872-4.871c0-2.69,2.182-4.872,4.872-4.872c2.689,0,4.871,2.182,4.871,4.872C20.871,18.689,18.689,20.871,16,20.871z"></path><title>Link options.</title></g></g></g></g><!--z-index:48--><g   id="j_50" ><path  stroke="#707070" d="M 2129 2729 L 2200 2588 C 2202.6666666666665 2582 2202.6666666666665 2576 2200 2570 L 2129 2429" id="v-652" stroke-width="2" stroke-dasharray="30 30" fill="none"></path><path  fill="black" stroke="black" d="M 0 0 0 0" transform="matrix(0.4472137875035034,-0.8944270949981173,0.8944270949981173,0.4472137875035034,2129,2729)"></path><path  fill="#707070" stroke="#707070" d="M 20 0 L 0 10 L 20 20 z" id="v-654" transform="matrix(0.4472136088532365,0.8944271843232765,-0.8944271843232765,0.4472136088532365,2137.9443037234505,2424.527928005735)"></path><path  d="M 2129 2729 L 2200 2588 C 2202.6666666666665 2582 2202.6666666666665 2576 2200 2570 L 2129 2429" id="v-653" fill="none" style="pointer-events: visiblepainted; cursor: auto;"></path><g ><g id="v-643"  label-idx="0" cursor="move" transform="matrix(1,0,0,1,2202,2579)"><rect joint-selector="rect" id="v-647" fill="#ffffff" rx="3" ry="3" pointer-events="none" width="188.6291961669922" height="54.164363861083984" transform="matrix(1,0,0,1,-95.6,-27)"></rect><text joint-selector="text" id="v-646" font-size="24px" xml:space="preserve" y="0.8em" fill="#707070" text-anchor="middle" pointer-events="none" font-family="Arial" font-weight="normal" transform="matrix(1,0,0,1,0,-24.5)"><tspan dy="0" >6: Возвращает</tspan><tspan dy="1.2em" x="0" >данные доклада</tspan></text></g><g id="v-644"  label-idx="1" cursor="move" transform="matrix(1,0,0,1,2202,2619.800048828125)"><rect joint-selector="rect" id="v-649" fill="#ffffff" rx="3" ry="3" pointer-events="none" width="56.34557342529297" height="18.11740207672119" transform="matrix(1,0,0,1,-26.9,-9.1)"></rect><text joint-selector="text" id="v-648" font-size="17px" xml:space="preserve" y="0.8em" fill="#707070" text-anchor="middle" pointer-events="none" font-family="Arial" font-weight="normal" transform="matrix(1,0,0,1,0,-8.2)"><tspan dy="0" >[JDBC]</tspan></text></g><g id="v-645"  label-idx="2" cursor="move" transform="matrix(1,0,0,1,2192,2628.199951171875)"><rect joint-selector="rect" id="v-651" fill="#ffffff" rx="3" ry="3"  width="0" height="0" transform="matrix(1,0,0,1,0,0)" display="none"></rect><text joint-selector="text" id="v-650" fill="#000000" font-size="14" text-anchor="middle" pointer-events="none"></text></g></g><g  display="none" style="display: none;"><g  transform="translate(2204, 2579)" id="v-863"><circle  idx="0" r="10"></circle><path  idx="0" d="M16,5.333c-7.732,0-14,4.701-14,10.5c0,1.982,0.741,3.833,2.016,5.414L2,25.667l5.613-1.441c2.339,1.317,5.237,2.107,8.387,2.107c7.732,0,14-4.701,14-10.5C30,10.034,23.732,5.333,16,5.333z" transform="translate(5, -33)"></path><path  idx="0" transform="scale(.8) translate(9.5, -37)" d="M24.778,21.419 19.276,15.917 24.777,10.415 21.949,7.585 16.447,13.087 10.945,7.585 8.117,10.415 13.618,15.917 8.116,21.419 10.946,24.248 16.447,18.746 21.948,24.248z"><title>Remove vertex.</title></path></g></g><g  id="v-656" display="none"><g  id="v-641"><path  end="source" d="M 26 0 L 0 13 L 26 26 z"></path></g><g  id="v-642"><path  end="target" d="M 26 0 L 0 13 L 26 26 z"></path></g></g><g  id="v-655" display="none"><g  id="v-640" transform="translate(2146.989823158115, 2693.2737314747296) "><g  event="remove"><circle r="11"></circle><path transform="scale(.8) translate(-16, -16)" d="M24.778,21.419 19.276,15.917 24.777,10.415 21.949,7.585 16.447,13.087 10.945,7.585 8.117,10.415 13.618,15.917 8.116,21.419 10.946,24.248 16.447,18.746 21.948,24.248z"></path><title>Remove link.</title></g><g  event="link:options"><circle r="11" transform="translate(25)"></circle><path fill="white" transform="scale(.55) translate(29, -16)" d="M31.229,17.736c0.064-0.571,0.104-1.148,0.104-1.736s-0.04-1.166-0.104-1.737l-4.377-1.557c-0.218-0.716-0.504-1.401-0.851-2.05l1.993-4.192c-0.725-0.91-1.549-1.734-2.458-2.459l-4.193,1.994c-0.647-0.347-1.334-0.632-2.049-0.849l-1.558-4.378C17.165,0.708,16.588,0.667,16,0.667s-1.166,0.041-1.737,0.105L12.707,5.15c-0.716,0.217-1.401,0.502-2.05,0.849L6.464,4.005C5.554,4.73,4.73,5.554,4.005,6.464l1.994,4.192c-0.347,0.648-0.632,1.334-0.849,2.05l-4.378,1.557C0.708,14.834,0.667,15.412,0.667,16s0.041,1.165,0.105,1.736l4.378,1.558c0.217,0.715,0.502,1.401,0.849,2.049l-1.994,4.193c0.725,0.909,1.549,1.733,2.459,2.458l4.192-1.993c0.648,0.347,1.334,0.633,2.05,0.851l1.557,4.377c0.571,0.064,1.148,0.104,1.737,0.104c0.588,0,1.165-0.04,1.736-0.104l1.558-4.377c0.715-0.218,1.399-0.504,2.049-0.851l4.193,1.993c0.909-0.725,1.733-1.549,2.458-2.458l-1.993-4.193c0.347-0.647,0.633-1.334,0.851-2.049L31.229,17.736zM16,20.871c-2.69,0-4.872-2.182-4.872-4.871c0-2.69,2.182-4.872,4.872-4.872c2.689,0,4.871,2.182,4.871,4.872C20.871,18.689,18.689,20.871,16,20.871z"></path><title>Link options.</title></g></g></g></g><!--z-index:49--><g   id="j_51" ><path  stroke="#707070" d="M 1953 2129 L 1778 1870 C 1774.4695047554424 1864.5797857223636 1769.4695047554424 1860.5797857223636 1763 1858 L 1529 1767" id="v-672" stroke-width="2" stroke-dasharray="30 30" fill="none"></path><path  fill="black" stroke="black" d="M 0 0 0 0" transform="matrix(-0.5591078978982585,-0.8290949031973303,0.8290949031973303,-0.5591078978982585,1952.8460693359375,2129)"></path><path  fill="#707070" stroke="#707070" d="M 20 0 L 0 10 L 20 20 z" id="v-674" transform="matrix(0.931604067375912,0.3634747056517925,-0.3634747056517925,0.931604067375912,1532.6347464218213,1757.4699886369106)"></path><path  d="M 1953 2129 L 1778 1870 C 1774.4695047554424 1864.5797857223636 1769.4695047554424 1860.5797857223636 1763 1858 L 1529 1767" id="v-673" fill="none" style="pointer-events: visiblepainted; cursor: auto;"></path><g ><g id="v-663"  label-idx="0" cursor="move" transform="matrix(1,0,0,1,1789.7532958984375,1887.3948974609375)"><rect joint-selector="rect" id="v-667" fill="#ffffff" rx="3" ry="3" pointer-events="none" width="206.22134399414062" height="57.787845611572266" transform="matrix(1,0,0,1,-101.1,-28.9)"></rect><text joint-selector="text" id="v-666" font-size="24px" xml:space="preserve" y="0.8em" fill="#707070" text-anchor="middle" pointer-events="none" font-family="Arial" font-weight="normal" transform="matrix(1,0,0,1,0,-26.4)"><tspan dy="0" >7: 200 OK (доклад</tspan><tspan dy="1.2em" x="0" >существует)</tspan></text></g><g id="v-664"  label-idx="1" cursor="move" transform="matrix(1,0,0,1,1789.7532958984375,1928.1949462890625)"><rect joint-selector="rect" id="v-669" fill="#ffffff" rx="3" ry="3" pointer-events="none" width="57.29158401489258" height="18.11740207672119" transform="matrix(1,0,0,1,-27.4,-9.1)"></rect><text joint-selector="text" id="v-668" font-size="17px" xml:space="preserve" y="0.8em" fill="#707070" text-anchor="middle" pointer-events="none" font-family="Arial" font-weight="normal" transform="matrix(1,0,0,1,0,-8.2)"><tspan dy="0" >[REST]</tspan></text></g><g id="v-665"  label-idx="2" cursor="move" transform="matrix(1,0,0,1,1779.7532958984375,1936.594970703125)"><rect joint-selector="rect" id="v-671" fill="#ffffff" rx="3" ry="3"  width="0" height="0" transform="matrix(1,0,0,1,0,0)" display="none"></rect><text joint-selector="text" id="v-670" fill="#000000" font-size="14" text-anchor="middle" pointer-events="none"></text></g></g><g  display="none" style="display: none;"><g  transform="translate(1772.7042571331635, 1861.8696785835455)" id="v-861"><circle  idx="0" r="10"></circle><path  idx="0" d="M16,5.333c-7.732,0-14,4.701-14,10.5c0,1.982,0.741,3.833,2.016,5.414L2,25.667l5.613-1.441c2.339,1.317,5.237,2.107,8.387,2.107c7.732,0,14-4.701,14-10.5C30,10.034,23.732,5.333,16,5.333z" transform="translate(5, -33)"></path><path  idx="0" transform="scale(.8) translate(9.5, -37)" d="M24.778,21.419 19.276,15.917 24.777,10.415 21.949,7.585 16.447,13.087 10.945,7.585 8.117,10.415 13.618,15.917 8.116,21.419 10.946,24.248 16.447,18.746 21.948,24.248z"><title>Remove vertex.</title></path></g></g><g  id="v-676" display="none"><g  id="v-661"><path  end="source" d="M 26 0 L 0 13 L 26 26 z"></path></g><g  id="v-662"><path  end="target" d="M 26 0 L 0 13 L 26 26 z"></path></g></g><g  id="v-675" display="none"><g  id="v-660" transform="translate(1930.6057035488807, 2095.8564412523433) "><g  event="remove"><circle r="11"></circle><path transform="scale(.8) translate(-16, -16)" d="M24.778,21.419 19.276,15.917 24.777,10.415 21.949,7.585 16.447,13.087 10.945,7.585 8.117,10.415 13.618,15.917 8.116,21.419 10.946,24.248 16.447,18.746 21.948,24.248z"></path><title>Remove link.</title></g><g  event="link:options"><circle r="11" transform="translate(25)"></circle><path fill="white" transform="scale(.55) translate(29, -16)" d="M31.229,17.736c0.064-0.571,0.104-1.148,0.104-1.736s-0.04-1.166-0.104-1.737l-4.377-1.557c-0.218-0.716-0.504-1.401-0.851-2.05l1.993-4.192c-0.725-0.91-1.549-1.734-2.458-2.459l-4.193,1.994c-0.647-0.347-1.334-0.632-2.049-0.849l-1.558-4.378C17.165,0.708,16.588,0.667,16,0.667s-1.166,0.041-1.737,0.105L12.707,5.15c-0.716,0.217-1.401,0.502-2.05,0.849L6.464,4.005C5.554,4.73,4.73,5.554,4.005,6.464l1.994,4.192c-0.347,0.648-0.632,1.334-0.849,2.05l-4.378,1.557C0.708,14.834,0.667,15.412,0.667,16s0.041,1.165,0.105,1.736l4.378,1.558c0.217,0.715,0.502,1.401,0.849,2.049l-1.994,4.193c0.725,0.909,1.549,1.733,2.459,2.458l4.192-1.993c0.648,0.347,1.334,0.633,2.05,0.851l1.557,4.377c0.571,0.064,1.148,0.104,1.737,0.104c0.588,0,1.165-0.04,1.736-0.104l1.558-4.377c0.715-0.218,1.399-0.504,2.049-0.851l4.193,1.993c0.909-0.725,1.733-1.549,2.458-2.458l-1.993-4.193c0.347-0.647,0.633-1.334,0.851-2.049L31.229,17.736zM16,20.871c-2.69,0-4.872-2.182-4.872-4.871c0-2.69,2.182-4.872,4.872-4.872c2.689,0,4.871,2.182,4.871,4.872C20.871,18.689,18.689,20.871,16,20.871z"></path><title>Link options.</title></g></g></g></g><!--z-index:50--><g   id="j_52" ><path  stroke="#707070" d="M 1379 1529 L 1450 1388 C 1452.6666666666665 1382 1452.6666666666665 1376 1450 1370 L 1379 1229" id="v-692" stroke-width="2" stroke-dasharray="30 30" fill="none"></path><path  fill="black" stroke="black" d="M 0 0 0 0" transform="matrix(0.4472137875035034,-0.8944270949981173,0.8944270949981173,0.4472137875035034,1379,1529)"></path><path  fill="#707070" stroke="#707070" d="M 20 0 L 0 10 L 20 20 z" id="v-694" transform="matrix(0.4472136088532365,0.8944271843232765,-0.8944271843232765,0.4472136088532365,1387.9443037234505,1224.5278059354223)"></path><path  d="M 1379 1529 L 1450 1388 C 1452.6666666666665 1382 1452.6666666666665 1376 1450 1370 L 1379 1229" id="v-693" fill="none" style="pointer-events: visiblepainted; cursor: auto;"></path><g ><g id="v-683"  label-idx="0" cursor="move" transform="matrix(1,0,0,1,1452,1379)"><rect joint-selector="rect" id="v-687" fill="#ffffff" rx="3" ry="3" pointer-events="none" width="202.03573608398438" height="115.38783645629883" transform="matrix(1,0,0,1,-100.5,-57.7)"></rect><text joint-selector="text" id="v-686" font-size="24px" xml:space="preserve" y="0.8em" fill="#707070" text-anchor="middle" pointer-events="none" font-family="Arial" font-weight="normal" transform="matrix(1,0,0,1,0,-55.2)"><tspan dy="0" >8: GET /users/{spe</tspan><tspan dy="1.2em" x="0" >akerId}</tspan><tspan dy="1.2em" x="0" >/permissions</tspan><tspan dy="1.2em" x="0" >(проверка прав)</tspan></text></g><g id="v-684"  label-idx="1" cursor="move" transform="matrix(1,0,0,1,1452,1448.5999755859375)"><rect joint-selector="rect" id="v-689" fill="#ffffff" rx="3" ry="3" pointer-events="none" width="57.29158401489258" height="18.11740207672119" transform="matrix(1,0,0,1,-27.4,-9.1)"></rect><text joint-selector="text" id="v-688" font-size="17px" xml:space="preserve" y="0.8em" fill="#707070" text-anchor="middle" pointer-events="none" font-family="Arial" font-weight="normal" transform="matrix(1,0,0,1,0,-8.2)"><tspan dy="0" >[REST]</tspan></text></g><g id="v-685"  label-idx="2" cursor="move" transform="matrix(1,0,0,1,1442,1457)"><rect joint-selector="rect" id="v-691" fill="#ffffff" rx="3" ry="3"  width="0" height="0" transform="matrix(1,0,0,1,0,0)" display="none"></rect><text joint-selector="text" id="v-690" fill="#000000" font-size="14" text-anchor="middle" pointer-events="none"></text></g></g><g  display="none" style="display: none;"><g  transform="translate(1454, 1379)" id="v-864"><circle  idx="0" r="10"></circle><path  idx="0" d="M16,5.333c-7.732,0-14,4.701-14,10.5c0,1.982,0.741,3.833,2.016,5.414L2,25.667l5.613-1.441c2.339,1.317,5.237,2.107,8.387,2.107c7.732,0,14-4.701,14-10.5C30,10.034,23.732,5.333,16,5.333z" transform="translate(5, -33)"></path><path  idx="0" transform="scale(.8) translate(9.5, -37)" d="M24.778,21.419 19.276,15.917 24.777,10.415 21.949,7.585 16.447,13.087 10.945,7.585 8.117,10.415 13.618,15.917 8.116,21.419 10.946,24.248 16.447,18.746 21.948,24.248z"><title>Remove vertex.</title></path></g></g><g  id="v-696" display="none"><g  id="v-681"><path  end="source" d="M 26 0 L 0 13 L 26 26 z"></path></g><g  id="v-682"><path  end="target" d="M 26 0 L 0 13 L 26 26 z"></path></g></g><g  id="v-695" display="none"><g  id="v-680" transform="translate(1396.989823158115, 1493.2737314747294) "><g  event="remove"><circle r="11"></circle><path transform="scale(.8) translate(-16, -16)" d="M24.778,21.419 19.276,15.917 24.777,10.415 21.949,7.585 16.447,13.087 10.945,7.585 8.117,10.415 13.618,15.917 8.116,21.419 10.946,24.248 16.447,18.746 21.948,24.248z"></path><title>Remove link.</title></g><g  event="link:options"><circle r="11" transform="translate(25)"></circle><path fill="white" transform="scale(.55) translate(29, -16)" d="M31.229,17.736c0.064-0.571,0.104-1.148,0.104-1.736s-0.04-1.166-0.104-1.737l-4.377-1.557c-0.218-0.716-0.504-1.401-0.851-2.05l1.993-4.192c-0.725-0.91-1.549-1.734-2.458-2.459l-4.193,1.994c-0.647-0.347-1.334-0.632-2.049-0.849l-1.558-4.378C17.165,0.708,16.588,0.667,16,0.667s-1.166,0.041-1.737,0.105L12.707,5.15c-0.716,0.217-1.401,0.502-2.05,0.849L6.464,4.005C5.554,4.73,4.73,5.554,4.005,6.464l1.994,4.192c-0.347,0.648-0.632,1.334-0.849,2.05l-4.378,1.557C0.708,14.834,0.667,15.412,0.667,16s0.041,1.165,0.105,1.736l4.378,1.558c0.217,0.715,0.502,1.401,0.849,2.049l-1.994,4.193c0.725,0.909,1.549,1.733,2.459,2.458l4.192-1.993c0.648,0.347,1.334,0.633,2.05,0.851l1.557,4.377c0.571,0.064,1.148,0.104,1.737,0.104c0.588,0,1.165-0.04,1.736-0.104l1.558-4.377c0.715-0.218,1.399-0.504,2.049-0.851l4.193,1.993c0.909-0.725,1.733-1.549,2.458-2.458l-1.993-4.193c0.347-0.647,0.633-1.334,0.851-2.049L31.229,17.736zM16,20.871c-2.69,0-4.872-2.182-4.872-4.871c0-2.69,2.182-4.872,4.872-4.872c2.689,0,4.871,2.182,4.871,4.872C20.871,18.689,18.689,20.871,16,20.871z"></path><title>Link options.</title></g></g></g></g><!--z-index:51--><g   id="j_53" ><path  stroke="#707070" d="M 1379 929 L 1450 788 C 1452.6666666666665 781.9999999999999 1452.6666666666665 775.9999999999999 1450 770 L 1379 629" id="v-712" stroke-width="2" stroke-dasharray="30 30" fill="none"></path><path  fill="black" stroke="black" d="M 0 0 0 0" transform="matrix(0.4472137875035034,-0.8944270949981173,0.8944270949981173,0.4472137875035034,1379,929)"></path><path  fill="#707070" stroke="#707070" d="M 20 0 L 0 10 L 20 20 z" id="v-714" transform="matrix(0.4472136088532365,0.8944271843232765,-0.8944271843232765,0.4472136088532365,1387.9443037234505,624.5278669705787)"></path><path  d="M 1379 929 L 1450 788 C 1452.6666666666665 781.9999999999999 1452.6666666666665 775.9999999999999 1450 770 L 1379 629" id="v-713" fill="none" style="pointer-events: visiblepainted; cursor: auto;"></path><g ><g id="v-703"  label-idx="0" cursor="move" transform="matrix(1,0,0,1,1452,779)"><rect joint-selector="rect" id="v-707" fill="#ffffff" rx="3" ry="3" pointer-events="none" width="207.0106658935547" height="111.76436233520508" transform="matrix(1,0,0,1,-102.6,-55.8)"></rect><text joint-selector="text" id="v-706" font-size="24px" xml:space="preserve" y="0.8em" fill="#707070" text-anchor="middle" pointer-events="none" font-family="Arial" font-weight="normal" transform="matrix(1,0,0,1,0,-53.3)"><tspan dy="0" >9: SELECT</tspan><tspan dy="1.2em" x="0" >permissions FROM</tspan><tspan dy="1.2em" x="0" >users WHERE id =</tspan><tspan dy="1.2em" x="0" >?</tspan></text></g><g id="v-704"  label-idx="1" cursor="move" transform="matrix(1,0,0,1,1452,848.5999755859375)"><rect joint-selector="rect" id="v-709" fill="#ffffff" rx="3" ry="3" pointer-events="none" width="56.34557342529297" height="18.11740207672119" transform="matrix(1,0,0,1,-26.9,-9.1)"></rect><text joint-selector="text" id="v-708" font-size="17px" xml:space="preserve" y="0.8em" fill="#707070" text-anchor="middle" pointer-events="none" font-family="Arial" font-weight="normal" transform="matrix(1,0,0,1,0,-8.2)"><tspan dy="0" >[JDBC]</tspan></text></g><g id="v-705"  label-idx="2" cursor="move" transform="matrix(1,0,0,1,1442,857)"><rect joint-selector="rect" id="v-711" fill="#ffffff" rx="3" ry="3"  width="0" height="0" transform="matrix(1,0,0,1,0,0)" display="none"></rect><text joint-selector="text" id="v-710" fill="#000000" font-size="14" text-anchor="middle" pointer-events="none"></text></g></g><g  display="none" style="display: none;"><g  transform="translate(1454, 779)" id="v-866"><circle  idx="0" r="10"></circle><path  idx="0" d="M16,5.333c-7.732,0-14,4.701-14,10.5c0,1.982,0.741,3.833,2.016,5.414L2,25.667l5.613-1.441c2.339,1.317,5.237,2.107,8.387,2.107c7.732,0,14-4.701,14-10.5C30,10.034,23.732,5.333,16,5.333z" transform="translate(5, -33)"></path><path  idx="0" transform="scale(.8) translate(9.5, -37)" d="M24.778,21.419 19.276,15.917 24.777,10.415 21.949,7.585 16.447,13.087 10.945,7.585 8.117,10.415 13.618,15.917 8.116,21.419 10.946,24.248 16.447,18.746 21.948,24.248z"><title>Remove vertex.</title></path></g></g><g  id="v-716" display="none"><g  id="v-701"><path  end="source" d="M 26 0 L 0 13 L 26 26 z"></path></g><g  id="v-702"><path  end="target" d="M 26 0 L 0 13 L 26 26 z"></path></g></g><g  id="v-715" display="none"><g  id="v-700" transform="translate(1396.989823158115, 893.2737314747293) "><g  event="remove"><circle r="11"></circle><path transform="scale(.8) translate(-16, -16)" d="M24.778,21.419 19.276,15.917 24.777,10.415 21.949,7.585 16.447,13.087 10.945,7.585 8.117,10.415 13.618,15.917 8.116,21.419 10.946,24.248 16.447,18.746 21.948,24.248z"></path><title>Remove link.</title></g><g  event="link:options"><circle r="11" transform="translate(25)"></circle><path fill="white" transform="scale(.55) translate(29, -16)" d="M31.229,17.736c0.064-0.571,0.104-1.148,0.104-1.736s-0.04-1.166-0.104-1.737l-4.377-1.557c-0.218-0.716-0.504-1.401-0.851-2.05l1.993-4.192c-0.725-0.91-1.549-1.734-2.458-2.459l-4.193,1.994c-0.647-0.347-1.334-0.632-2.049-0.849l-1.558-4.378C17.165,0.708,16.588,0.667,16,0.667s-1.166,0.041-1.737,0.105L12.707,5.15c-0.716,0.217-1.401,0.502-2.05,0.849L6.464,4.005C5.554,4.73,4.73,5.554,4.005,6.464l1.994,4.192c-0.347,0.648-0.632,1.334-0.849,2.05l-4.378,1.557C0.708,14.834,0.667,15.412,0.667,16s0.041,1.165,0.105,1.736l4.378,1.558c0.217,0.715,0.502,1.401,0.849,2.049l-1.994,4.193c0.725,0.909,1.549,1.733,2.459,2.458l4.192-1.993c0.648,0.347,1.334,0.633,2.05,0.851l1.557,4.377c0.571,0.064,1.148,0.104,1.737,0.104c0.588,0,1.165-0.04,1.736-0.104l1.558-4.377c0.715-0.218,1.399-0.504,2.049-0.851l4.193,1.993c0.909-0.725,1.733-1.549,2.458-2.458l-1.993-4.193c0.347-0.647,0.633-1.334,0.851-2.049L31.229,17.736zM16,20.871c-2.69,0-4.872-2.182-4.872-4.871c0-2.69,2.182-4.872,4.872-4.872c2.689,0,4.871,2.182,4.871,4.872C20.871,18.689,18.689,20.871,16,20.871z"></path><title>Link options.</title></g></g></g></g><!--z-index:52--><g   id="j_54" ><path  stroke="#707070" d="M 1229 629 L 1158 770 C 1155.3333333333333 775.9999999999999 1155.3333333333333 781.9999999999999 1158 788 L 1229 929" id="v-732" stroke-width="2" stroke-dasharray="30 30" fill="none"></path><path  fill="black" stroke="black" d="M 0 0 0 0" transform="matrix(-0.4472135493031434,0.8944272140983217,-0.8944272140983217,-0.4472135493031434,1229,629)"></path><path  fill="#707070" stroke="#707070" d="M 20 0 L 0 10 L 20 20 z" id="v-734" transform="matrix(-0.4472135493031436,-0.8944272140983216,0.8944272140983216,-0.4472135493031436,1220.0556953832981,933.4721327316709)"></path><path  d="M 1229 629 L 1158 770 C 1155.3333333333333 775.9999999999999 1155.3333333333333 781.9999999999999 1158 788 L 1229 929" id="v-733" fill="none" style="pointer-events: visiblepainted; cursor: auto;"></path><g ><g id="v-723"  label-idx="0" cursor="move" transform="matrix(1,0,0,1,1156,779)"><rect joint-selector="rect" id="v-727" fill="#ffffff" rx="3" ry="3" pointer-events="none" width="179.6178741455078" height="57.787845611572266" transform="matrix(1,0,0,1,-88.1,-28.9)"></rect><text joint-selector="text" id="v-726" font-size="24px" xml:space="preserve" y="0.8em" fill="#707070" text-anchor="middle" pointer-events="none" font-family="Arial" font-weight="normal" transform="matrix(1,0,0,1,0,-26.4)"><tspan dy="0" >10: Возвращает</tspan><tspan dy="1.2em" x="0" >права</tspan></text></g><g id="v-724"  label-idx="1" cursor="move" transform="matrix(1,0,0,1,1156,819.7999877929688)"><rect joint-selector="rect" id="v-729" fill="#ffffff" rx="3" ry="3" pointer-events="none" width="56.34557342529297" height="18.11740207672119" transform="matrix(1,0,0,1,-26.9,-9.1)"></rect><text joint-selector="text" id="v-728" font-size="17px" xml:space="preserve" y="0.8em" fill="#707070" text-anchor="middle" pointer-events="none" font-family="Arial" font-weight="normal" transform="matrix(1,0,0,1,0,-8.2)"><tspan dy="0" >[JDBC]</tspan></text></g><g id="v-725"  label-idx="2" cursor="move" transform="matrix(1,0,0,1,1146,828.2000122070312)"><rect joint-selector="rect" id="v-731" fill="#ffffff" rx="3" ry="3"  width="0" height="0" transform="matrix(1,0,0,1,0,0)" display="none"></rect><text joint-selector="text" id="v-730" fill="#000000" font-size="14" text-anchor="middle" pointer-events="none"></text></g></g><g  display="none" style="display: none;"><g  transform="translate(1154, 779)" id="v-867"><circle  idx="0" r="10"></circle><path  idx="0" d="M16,5.333c-7.732,0-14,4.701-14,10.5c0,1.982,0.741,3.833,2.016,5.414L2,25.667l5.613-1.441c2.339,1.317,5.237,2.107,8.387,2.107c7.732,0,14-4.701,14-10.5C30,10.034,23.732,5.333,16,5.333z" transform="translate(5, -33)"></path><path  idx="0" transform="scale(.8) translate(9.5, -37)" d="M24.778,21.419 19.276,15.917 24.777,10.415 21.949,7.585 16.447,13.087 10.945,7.585 8.117,10.415 13.618,15.917 8.116,21.419 10.946,24.248 16.447,18.746 21.948,24.248z"><title>Remove vertex.</title></path></g></g><g  id="v-736" display="none"><g  id="v-721"><path  end="source" d="M 26 0 L 0 13 L 26 26 z"></path></g><g  id="v-722"><path  end="target" d="M 26 0 L 0 13 L 26 26 z"></path></g></g><g  id="v-735" display="none"><g  id="v-720" transform="translate(1211.0101768418851, 664.7262685252707) "><g  event="remove"><circle r="11"></circle><path transform="scale(.8) translate(-16, -16)" d="M24.778,21.419 19.276,15.917 24.777,10.415 21.949,7.585 16.447,13.087 10.945,7.585 8.117,10.415 13.618,15.917 8.116,21.419 10.946,24.248 16.447,18.746 21.948,24.248z"></path><title>Remove link.</title></g><g  event="link:options"><circle r="11" transform="translate(25)"></circle><path fill="white" transform="scale(.55) translate(29, -16)" d="M31.229,17.736c0.064-0.571,0.104-1.148,0.104-1.736s-0.04-1.166-0.104-1.737l-4.377-1.557c-0.218-0.716-0.504-1.401-0.851-2.05l1.993-4.192c-0.725-0.91-1.549-1.734-2.458-2.459l-4.193,1.994c-0.647-0.347-1.334-0.632-2.049-0.849l-1.558-4.378C17.165,0.708,16.588,0.667,16,0.667s-1.166,0.041-1.737,0.105L12.707,5.15c-0.716,0.217-1.401,0.502-2.05,0.849L6.464,4.005C5.554,4.73,4.73,5.554,4.005,6.464l1.994,4.192c-0.347,0.648-0.632,1.334-0.849,2.05l-4.378,1.557C0.708,14.834,0.667,15.412,0.667,16s0.041,1.165,0.105,1.736l4.378,1.558c0.217,0.715,0.502,1.401,0.849,2.049l-1.994,4.193c0.725,0.909,1.549,1.733,2.459,2.458l4.192-1.993c0.648,0.347,1.334,0.633,2.05,0.851l1.557,4.377c0.571,0.064,1.148,0.104,1.737,0.104c0.588,0,1.165-0.04,1.736-0.104l1.558-4.377c0.715-0.218,1.399-0.504,2.049-0.851l4.193,1.993c0.909-0.725,1.733-1.549,2.458-2.458l-1.993-4.193c0.347-0.647,0.633-1.334,0.851-2.049L31.229,17.736zM16,20.871c-2.69,0-4.872-2.182-4.872-4.871c0-2.69,2.182-4.872,4.872-4.872c2.689,0,4.871,2.182,4.871,4.872C20.871,18.689,18.689,20.871,16,20.871z"></path><title>Link options.</title></g></g></g></g><!--z-index:53--><g   id="j_55" ><path  stroke="#707070" d="M 1229 1229 L 1158 1370 C 1155.3333333333333 1376 1155.3333333333333 1382 1158 1388 L 1229 1529" id="v-752" stroke-width="2" stroke-dasharray="30 30" fill="none"></path><path  fill="black" stroke="black" d="M 0 0 0 0" transform="matrix(-0.4472135493031434,0.8944272140983217,-0.8944272140983217,-0.4472135493031434,1229,1229)"></path><path  fill="#707070" stroke="#707070" d="M 20 0 L 0 10 L 20 20 z" id="v-754" transform="matrix(-0.4472135493031436,-0.8944272140983216,0.8944272140983216,-0.4472135493031436,1220.0556953832981,1533.472193766827)"></path><path  d="M 1229 1229 L 1158 1370 C 1155.3333333333333 1376 1155.3333333333333 1382 1158 1388 L 1229 1529" id="v-753" fill="none" style="pointer-events: visiblepainted; cursor: auto;"></path><g ><g id="v-743"  label-idx="0" cursor="move" transform="matrix(1,0,0,1,1156,1379)"><rect joint-selector="rect" id="v-747" fill="#ffffff" rx="3" ry="3" pointer-events="none" width="171.3605499267578" height="54.164363861083984" transform="matrix(1,0,0,1,-84.4,-27)"></rect><text joint-selector="text" id="v-746" font-size="24px" xml:space="preserve" y="0.8em" fill="#707070" text-anchor="middle" pointer-events="none" font-family="Arial" font-weight="normal" transform="matrix(1,0,0,1,0,-24.5)"><tspan dy="0" >11: Permissions</tspan><tspan dy="1.2em" x="0" >OK</tspan></text></g><g id="v-744"  label-idx="1" cursor="move" transform="matrix(1,0,0,1,1156,1419.800048828125)"><rect joint-selector="rect" id="v-749" fill="#ffffff" rx="3" ry="3" pointer-events="none" width="57.29158401489258" height="18.11740207672119" transform="matrix(1,0,0,1,-27.4,-9.1)"></rect><text joint-selector="text" id="v-748" font-size="17px" xml:space="preserve" y="0.8em" fill="#707070" text-anchor="middle" pointer-events="none" font-family="Arial" font-weight="normal" transform="matrix(1,0,0,1,0,-8.2)"><tspan dy="0" >[REST]</tspan></text></g><g id="v-745"  label-idx="2" cursor="move" transform="matrix(1,0,0,1,1146,1428.199951171875)"><rect joint-selector="rect" id="v-751" fill="#ffffff" rx="3" ry="3"  width="0" height="0" transform="matrix(1,0,0,1,0,0)" display="none"></rect><text joint-selector="text" id="v-750" fill="#000000" font-size="14" text-anchor="middle" pointer-events="none"></text></g></g><g  display="none" style="display: none;"><g  transform="translate(1154, 1379)" id="v-865"><circle  idx="0" r="10"></circle><path  idx="0" d="M16,5.333c-7.732,0-14,4.701-14,10.5c0,1.982,0.741,3.833,2.016,5.414L2,25.667l5.613-1.441c2.339,1.317,5.237,2.107,8.387,2.107c7.732,0,14-4.701,14-10.5C30,10.034,23.732,5.333,16,5.333z" transform="translate(5, -33)"></path><path  idx="0" transform="scale(.8) translate(9.5, -37)" d="M24.778,21.419 19.276,15.917 24.777,10.415 21.949,7.585 16.447,13.087 10.945,7.585 8.117,10.415 13.618,15.917 8.116,21.419 10.946,24.248 16.447,18.746 21.948,24.248z"><title>Remove vertex.</title></path></g></g><g  id="v-756" display="none"><g  id="v-741"><path  end="source" d="M 26 0 L 0 13 L 26 26 z"></path></g><g  id="v-742"><path  end="target" d="M 26 0 L 0 13 L 26 26 z"></path></g></g><g  id="v-755" display="none"><g  id="v-740" transform="translate(1211.0101768418851, 1264.7262685252708) "><g  event="remove"><circle r="11"></circle><path transform="scale(.8) translate(-16, -16)" d="M24.778,21.419 19.276,15.917 24.777,10.415 21.949,7.585 16.447,13.087 10.945,7.585 8.117,10.415 13.618,15.917 8.116,21.419 10.946,24.248 16.447,18.746 21.948,24.248z"></path><title>Remove link.</title></g><g  event="link:options"><circle r="11" transform="translate(25)"></circle><path fill="white" transform="scale(.55) translate(29, -16)" d="M31.229,17.736c0.064-0.571,0.104-1.148,0.104-1.736s-0.04-1.166-0.104-1.737l-4.377-1.557c-0.218-0.716-0.504-1.401-0.851-2.05l1.993-4.192c-0.725-0.91-1.549-1.734-2.458-2.459l-4.193,1.994c-0.647-0.347-1.334-0.632-2.049-0.849l-1.558-4.378C17.165,0.708,16.588,0.667,16,0.667s-1.166,0.041-1.737,0.105L12.707,5.15c-0.716,0.217-1.401,0.502-2.05,0.849L6.464,4.005C5.554,4.73,4.73,5.554,4.005,6.464l1.994,4.192c-0.347,0.648-0.632,1.334-0.849,2.05l-4.378,1.557C0.708,14.834,0.667,15.412,0.667,16s0.041,1.165,0.105,1.736l4.378,1.558c0.217,0.715,0.502,1.401,0.849,2.049l-1.994,4.193c0.725,0.909,1.549,1.733,2.459,2.458l4.192-1.993c0.648,0.347,1.334,0.633,2.05,0.851l1.557,4.377c0.571,0.064,1.148,0.104,1.737,0.104c0.588,0,1.165-0.04,1.736-0.104l1.558-4.377c0.715-0.218,1.399-0.504,2.049-0.851l4.193,1.993c0.909-0.725,1.733-1.549,2.458-2.458l-1.993-4.193c0.347-0.647,0.633-1.334,0.851-2.049L31.229,17.736zM16,20.871c-2.69,0-4.872-2.182-4.872-4.871c0-2.69,2.182-4.872,4.872-4.872c2.689,0,4.871,2.182,4.871,4.872C20.871,18.689,18.689,20.871,16,20.871z"></path><title>Link options.</title></g></g></g></g><!--z-index:54--><g   id="j_56" ><path  stroke="#707070" d="M 1079 1767 L 845 1858 C 838.5304952445575 1860.5797857223636 833.5304952445575 1864.5797857223636 830 1870 L 655 2129" id="v-772" stroke-width="2" stroke-dasharray="30 30" fill="none"></path><path  fill="black" stroke="black" d="M 0 0 0 0" transform="matrix(-0.9316041157754884,0.36347458160120427,-0.36347458160120427,-0.9316041157754884,1079,1766.7860107421875)"></path><path  fill="#707070" stroke="#707070" d="M 20 0 L 0 10 L 20 20 z" id="v-774" transform="matrix(0.5591081186995676,-0.8290947542978608,0.8290947542978608,0.5591081186995676,646.8629663872132,2123.408850730983)"></path><path  d="M 1079 1767 L 845 1858 C 838.5304952445575 1860.5797857223636 833.5304952445575 1864.5797857223636 830 1870 L 655 2129" id="v-773" fill="none" style="pointer-events: visiblepainted; cursor: auto;"></path><g ><g id="v-763"  label-idx="0" cursor="move" transform="matrix(1,0,0,1,818.2467041015625,1887.3948974609375)"><rect joint-selector="rect" id="v-767" fill="#ffffff" rx="3" ry="3" pointer-events="none" width="211.7923583984375" height="115.38783645629883" transform="matrix(1,0,0,1,-104.7,-57.7)"></rect><text joint-selector="text" id="v-766" font-size="24px" xml:space="preserve" y="0.8em" fill="#707070" text-anchor="middle" pointer-events="none" font-family="Arial" font-weight="normal" transform="matrix(1,0,0,1,0,-55.2)"><tspan dy="0" >12: INSERT INTO c</tspan><tspan dy="1.2em" x="0" >onference_reports</tspan><tspan dy="1.2em" x="0" >(conference_id,</tspan><tspan dy="1.2em" x="0" >report_id)</tspan></text></g><g id="v-764"  label-idx="1" cursor="move" transform="matrix(1,0,0,1,818.2467041015625,1956.994873046875)"><rect joint-selector="rect" id="v-769" fill="#ffffff" rx="3" ry="3" pointer-events="none" width="56.34557342529297" height="18.11740207672119" transform="matrix(1,0,0,1,-26.9,-9.1)"></rect><text joint-selector="text" id="v-768" font-size="17px" xml:space="preserve" y="0.8em" fill="#707070" text-anchor="middle" pointer-events="none" font-family="Arial" font-weight="normal" transform="matrix(1,0,0,1,0,-8.2)"><tspan dy="0" >[JDBC]</tspan></text></g><g id="v-765"  label-idx="2" cursor="move" transform="matrix(1,0,0,1,808.2467041015625,1965.3948974609375)"><rect joint-selector="rect" id="v-771" fill="#ffffff" rx="3" ry="3"  width="0" height="0" transform="matrix(1,0,0,1,0,0)" display="none"></rect><text joint-selector="text" id="v-770" fill="#000000" font-size="14" text-anchor="middle" pointer-events="none"></text></g></g><g  display="none" style="display: none;"><g  transform="translate(835.2957428668363, 1861.8696785835455)" id="v-868"><circle  idx="0" r="10"></circle><path  idx="0" d="M16,5.333c-7.732,0-14,4.701-14,10.5c0,1.982,0.741,3.833,2.016,5.414L2,25.667l5.613-1.441c2.339,1.317,5.237,2.107,8.387,2.107c7.732,0,14-4.701,14-10.5C30,10.034,23.732,5.333,16,5.333z" transform="translate(5, -33)"></path><path  idx="0" transform="scale(.8) translate(9.5, -37)" d="M24.778,21.419 19.276,15.917 24.777,10.415 21.949,7.585 16.447,13.087 10.945,7.585 8.117,10.415 13.618,15.917 8.116,21.419 10.946,24.248 16.447,18.746 21.948,24.248z"><title>Remove vertex.</title></path></g></g><g  id="v-776" display="none"><g  id="v-761"><path  end="source" d="M 26 0 L 0 13 L 26 26 z"></path></g><g  id="v-762"><path  end="target" d="M 26 0 L 0 13 L 26 26 z"></path></g></g><g  id="v-775" display="none"><g  id="v-760" transform="translate(1041.7198131383482, 1781.4978504461978) "><g  event="remove"><circle r="11"></circle><path transform="scale(.8) translate(-16, -16)" d="M24.778,21.419 19.276,15.917 24.777,10.415 21.949,7.585 16.447,13.087 10.945,7.585 8.117,10.415 13.618,15.917 8.116,21.419 10.946,24.248 16.447,18.746 21.948,24.248z"></path><title>Remove link.</title></g><g  event="link:options"><circle r="11" transform="translate(25)"></circle><path fill="white" transform="scale(.55) translate(29, -16)" d="M31.229,17.736c0.064-0.571,0.104-1.148,0.104-1.736s-0.04-1.166-0.104-1.737l-4.377-1.557c-0.218-0.716-0.504-1.401-0.851-2.05l1.993-4.192c-0.725-0.91-1.549-1.734-2.458-2.459l-4.193,1.994c-0.647-0.347-1.334-0.632-2.049-0.849l-1.558-4.378C17.165,0.708,16.588,0.667,16,0.667s-1.166,0.041-1.737,0.105L12.707,5.15c-0.716,0.217-1.401,0.502-2.05,0.849L6.464,4.005C5.554,4.73,4.73,5.554,4.005,6.464l1.994,4.192c-0.347,0.648-0.632,1.334-0.849,2.05l-4.378,1.557C0.708,14.834,0.667,15.412,0.667,16s0.041,1.165,0.105,1.736l4.378,1.558c0.217,0.715,0.502,1.401,0.849,2.049l-1.994,4.193c0.725,0.909,1.549,1.733,2.459,2.458l4.192-1.993c0.648,0.347,1.334,0.633,2.05,0.851l1.557,4.377c0.571,0.064,1.148,0.104,1.737,0.104c0.588,0,1.165-0.04,1.736-0.104l1.558-4.377c0.715-0.218,1.399-0.504,2.049-0.851l4.193,1.993c0.909-0.725,1.733-1.549,2.458-2.458l-1.993-4.193c0.347-0.647,0.633-1.334,0.851-2.049L31.229,17.736zM16,20.871c-2.69,0-4.872-2.182-4.872-4.871c0-2.69,2.182-4.872,4.872-4.872c2.689,0,4.871,2.182,4.871,4.872C20.871,18.689,18.689,20.871,16,20.871z"></path><title>Link options.</title></g></g></g></g><!--z-index:55--><g   id="j_57" ><path  stroke="#707070" d="M 779 2191 L 1013 2100 C 1019.4695047554422 2097.420214277636 1024.4695047554424 2093.420214277636 1028 2088 L 1203 1829" id="v-792" stroke-width="2" stroke-dasharray="30 30" fill="none"></path><path  fill="black" stroke="black" d="M 0 0 0 0" transform="matrix(0.9316040189763191,-0.36347482970237444,0.36347482970237444,0.9316040189763191,779,2191.2138671875)"></path><path  fill="#707070" stroke="#707070" d="M 20 0 L 0 10 L 20 20 z" id="v-794" transform="matrix(-0.5591078978982588,0.8290949031973301,-0.8290949031973301,-0.5591078978982588,1211.1370328937685,1834.5910235016968)"></path><path  d="M 779 2191 L 1013 2100 C 1019.4695047554422 2097.420214277636 1024.4695047554424 2093.420214277636 1028 2088 L 1203 1829" id="v-793" fill="none" style="pointer-events: visiblepainted; cursor: auto;"></path><g ><g id="v-783"  label-idx="0" cursor="move" transform="matrix(1,0,0,1,1039.7532958984375,2070.60498046875)"><rect joint-selector="rect" id="v-787" fill="#ffffff" rx="3" ry="3" pointer-events="none" width="130.31961059570312" height="86.58784866333008" transform="matrix(1,0,0,1,-64.6,-43.3)"></rect><text joint-selector="text" id="v-786" font-size="24px" xml:space="preserve" y="0.8em" fill="#707070" text-anchor="middle" pointer-events="none" font-family="Arial" font-weight="normal" transform="matrix(1,0,0,1,0,-40.8)"><tspan dy="0" >13: Вставка</tspan><tspan dy="1.2em" x="0" >выполнена</tspan><tspan dy="1.2em" x="0" >успешно</tspan></text></g><g id="v-784"  label-idx="1" cursor="move" transform="matrix(1,0,0,1,1039.7532958984375,2125.80517578125)"><rect joint-selector="rect" id="v-789" fill="#ffffff" rx="3" ry="3" pointer-events="none" width="56.34557342529297" height="18.11740207672119" transform="matrix(1,0,0,1,-26.9,-9.1)"></rect><text joint-selector="text" id="v-788" font-size="17px" xml:space="preserve" y="0.8em" fill="#707070" text-anchor="middle" pointer-events="none" font-family="Arial" font-weight="normal" transform="matrix(1,0,0,1,0,-8.2)"><tspan dy="0" >[JDBC]</tspan></text></g><g id="v-785"  label-idx="2" cursor="move" transform="matrix(1,0,0,1,1029.7532958984375,2134.205078125)"><rect joint-selector="rect" id="v-791" fill="#ffffff" rx="3" ry="3"  width="0" height="0" transform="matrix(1,0,0,1,0,0)" display="none"></rect><text joint-selector="text" id="v-790" fill="#000000" font-size="14" text-anchor="middle" pointer-events="none"></text></g></g><g  display="none" style="display: none;"><g  transform="translate(1022.7042571331635, 2096.1303214164545)" id="v-869"><circle  idx="0" r="10"></circle><path  idx="0" d="M16,5.333c-7.732,0-14,4.701-14,10.5c0,1.982,0.741,3.833,2.016,5.414L2,25.667l5.613-1.441c2.339,1.317,5.237,2.107,8.387,2.107c7.732,0,14-4.701,14-10.5C30,10.034,23.732,5.333,16,5.333z" transform="translate(5, -33)"></path><path  idx="0" transform="scale(.8) translate(9.5, -37)" d="M24.778,21.419 19.276,15.917 24.777,10.415 21.949,7.585 16.447,13.087 10.945,7.585 8.117,10.415 13.618,15.917 8.116,21.419 10.946,24.248 16.447,18.746 21.948,24.248z"><title>Remove vertex.</title></path></g></g><g  id="v-796" display="none"><g  id="v-781"><path  end="source" d="M 26 0 L 0 13 L 26 26 z"></path></g><g  id="v-782"><path  end="target" d="M 26 0 L 0 13 L 26 26 z"></path></g></g><g  id="v-795" display="none"><g  id="v-780" transform="translate(816.2801868616518, 2176.502149553802) "><g  event="remove"><circle r="11"></circle><path transform="scale(.8) translate(-16, -16)" d="M24.778,21.419 19.276,15.917 24.777,10.415 21.949,7.585 16.447,13.087 10.945,7.585 8.117,10.415 13.618,15.917 8.116,21.419 10.946,24.248 16.447,18.746 21.948,24.248z"></path><title>Remove link.</title></g><g  event="link:options"><circle r="11" transform="translate(25)"></circle><path fill="white" transform="scale(.55) translate(29, -16)" d="M31.229,17.736c0.064-0.571,0.104-1.148,0.104-1.736s-0.04-1.166-0.104-1.737l-4.377-1.557c-0.218-0.716-0.504-1.401-0.851-2.05l1.993-4.192c-0.725-0.91-1.549-1.734-2.458-2.459l-4.193,1.994c-0.647-0.347-1.334-0.632-2.049-0.849l-1.558-4.378C17.165,0.708,16.588,0.667,16,0.667s-1.166,0.041-1.737,0.105L12.707,5.15c-0.716,0.217-1.401,0.502-2.05,0.849L6.464,4.005C5.554,4.73,4.73,5.554,4.005,6.464l1.994,4.192c-0.347,0.648-0.632,1.334-0.849,2.05l-4.378,1.557C0.708,14.834,0.667,15.412,0.667,16s0.041,1.165,0.105,1.736l4.378,1.558c0.217,0.715,0.502,1.401,0.849,2.049l-1.994,4.193c0.725,0.909,1.549,1.733,2.459,2.458l4.192-1.993c0.648,0.347,1.334,0.633,2.05,0.851l1.557,4.377c0.571,0.064,1.148,0.104,1.737,0.104c0.588,0,1.165-0.04,1.736-0.104l1.558-4.377c0.715-0.218,1.399-0.504,2.049-0.851l4.193,1.993c0.909-0.725,1.733-1.549,2.458-2.458l-1.993-4.193c0.347-0.647,0.633-1.334,0.851-2.049L31.229,17.736zM16,20.871c-2.69,0-4.872-2.182-4.872-4.871c0-2.69,2.182-4.872,4.872-4.872c2.689,0,4.871,2.182,4.871,4.872C20.871,18.689,18.689,20.871,16,20.871z"></path><title>Link options.</title></g></g></g></g><!--z-index:56--><g   id="j_58" ><path  stroke="#707070" d="M 1229 1829 L 1158 1970 C 1155.3333333333333 1976 1155.3333333333333 1982 1158 1988 L 1229 2129" id="v-812" stroke-width="2" stroke-dasharray="30 30" fill="none"></path><path  fill="black" stroke="black" d="M 0 0 0 0" transform="matrix(-0.4472135493031434,0.8944272140983217,-0.8944272140983217,-0.4472135493031434,1229,1829)"></path><path  fill="#707070" stroke="#707070" d="M 20 0 L 0 10 L 20 20 z" id="v-814" transform="matrix(-0.4472135493031436,-0.8944272140983216,0.8944272140983216,-0.4472135493031436,1220.0556953832981,2133.472071696515)"></path><path  d="M 1229 1829 L 1158 1970 C 1155.3333333333333 1976 1155.3333333333333 1982 1158 1988 L 1229 2129" id="v-813" fill="none" style="pointer-events: visiblepainted; cursor: auto;"></path><g ><g id="v-803"  label-idx="0" cursor="move" transform="matrix(1,0,0,1,1156,1979)"><rect joint-selector="rect" id="v-807" fill="#ffffff" rx="3" ry="3" pointer-events="none" width="173.1875457763672" height="25.36436367034912" transform="matrix(1,0,0,1,-86,-12.6)"></rect><text joint-selector="text" id="v-806" font-size="24px" xml:space="preserve" y="0.8em" fill="#707070" text-anchor="middle" pointer-events="none" font-family="Arial" font-weight="normal" transform="matrix(1,0,0,1,0,-10.1)"><tspan dy="0" >14: 201 Created</tspan></text></g><g id="v-804"  label-idx="1" cursor="move" transform="matrix(1,0,0,1,1156,2005.4000244140625)"><rect joint-selector="rect" id="v-809" fill="#ffffff" rx="3" ry="3" pointer-events="none" width="57.29158401489258" height="18.11740207672119" transform="matrix(1,0,0,1,-27.4,-9.1)"></rect><text joint-selector="text" id="v-808" font-size="17px" xml:space="preserve" y="0.8em" fill="#707070" text-anchor="middle" pointer-events="none" font-family="Arial" font-weight="normal" transform="matrix(1,0,0,1,0,-8.2)"><tspan dy="0" >[REST]</tspan></text></g><g id="v-805"  label-idx="2" cursor="move" transform="matrix(1,0,0,1,1146,2013.800048828125)"><rect joint-selector="rect" id="v-811" fill="#ffffff" rx="3" ry="3"  width="0" height="0" transform="matrix(1,0,0,1,0,0)" display="none"></rect><text joint-selector="text" id="v-810" fill="#000000" font-size="14" text-anchor="middle" pointer-events="none"></text></g></g><g  display="none" style="display: none;"><g  transform="translate(1154, 1979)" id="v-859"><circle  idx="0" r="10"></circle><path  idx="0" d="M16,5.333c-7.732,0-14,4.701-14,10.5c0,1.982,0.741,3.833,2.016,5.414L2,25.667l5.613-1.441c2.339,1.317,5.237,2.107,8.387,2.107c7.732,0,14-4.701,14-10.5C30,10.034,23.732,5.333,16,5.333z" transform="translate(5, -33)"></path><path  idx="0" transform="scale(.8) translate(9.5, -37)" d="M24.778,21.419 19.276,15.917 24.777,10.415 21.949,7.585 16.447,13.087 10.945,7.585 8.117,10.415 13.618,15.917 8.116,21.419 10.946,24.248 16.447,18.746 21.948,24.248z"><title>Remove vertex.</title></path></g></g><g  id="v-816" display="none"><g  id="v-801"><path  end="source" d="M 26 0 L 0 13 L 26 26 z"></path></g><g  id="v-802"><path  end="target" d="M 26 0 L 0 13 L 26 26 z"></path></g></g><g  id="v-815" display="none"><g  id="v-800" transform="translate(1211.0101768418851, 1864.7262685252708) "><g  event="remove"><circle r="11"></circle><path transform="scale(.8) translate(-16, -16)" d="M24.778,21.419 19.276,15.917 24.777,10.415 21.949,7.585 16.447,13.087 10.945,7.585 8.117,10.415 13.618,15.917 8.116,21.419 10.946,24.248 16.447,18.746 21.948,24.248z"></path><title>Remove link.</title></g><g  event="link:options"><circle r="11" transform="translate(25)"></circle><path fill="white" transform="scale(.55) translate(29, -16)" d="M31.229,17.736c0.064-0.571,0.104-1.148,0.104-1.736s-0.04-1.166-0.104-1.737l-4.377-1.557c-0.218-0.716-0.504-1.401-0.851-2.05l1.993-4.192c-0.725-0.91-1.549-1.734-2.458-2.459l-4.193,1.994c-0.647-0.347-1.334-0.632-2.049-0.849l-1.558-4.378C17.165,0.708,16.588,0.667,16,0.667s-1.166,0.041-1.737,0.105L12.707,5.15c-0.716,0.217-1.401,0.502-2.05,0.849L6.464,4.005C5.554,4.73,4.73,5.554,4.005,6.464l1.994,4.192c-0.347,0.648-0.632,1.334-0.849,2.05l-4.378,1.557C0.708,14.834,0.667,15.412,0.667,16s0.041,1.165,0.105,1.736l4.378,1.558c0.217,0.715,0.502,1.401,0.849,2.049l-1.994,4.193c0.725,0.909,1.549,1.733,2.459,2.458l4.192-1.993c0.648,0.347,1.334,0.633,2.05,0.851l1.557,4.377c0.571,0.064,1.148,0.104,1.737,0.104c0.588,0,1.165-0.04,1.736-0.104l1.558-4.377c0.715-0.218,1.399-0.504,2.049-0.851l4.193,1.993c0.909-0.725,1.733-1.549,2.458-2.458l-1.993-4.193c0.347-0.647,0.633-1.334,0.851-2.049L31.229,17.736zM16,20.871c-2.69,0-4.872-2.182-4.872-4.871c0-2.69,2.182-4.872,4.872-4.872c2.689,0,4.871,2.182,4.871,4.872C20.871,18.689,18.689,20.871,16,20.871z"></path><title>Link options.</title></g></g></g></g><!--z-index:57--><g   id="j_59" ><path  stroke="#707070" d="M 1229 2429 L 1158 2570 C 1155.3333333333333 2576 1155.3333333333333 2582 1158 2588 L 1229 2729" id="v-829" stroke-width="2" stroke-dasharray="30 30" fill="none"></path><path  fill="black" stroke="black" d="M 0 0 0 0" transform="matrix(-0.4472135493031434,0.8944272140983217,-0.8944272140983217,-0.4472135493031434,1229,2429)"></path><path  fill="#707070" stroke="#707070" d="M 20 0 L 0 10 L 20 20 z" id="v-831" transform="matrix(-0.4472135493031436,-0.8944272140983216,0.8944272140983216,-0.4472135493031436,1220.0556953832981,2733.472071696515)"></path><path  d="M 1229 2429 L 1158 2570 C 1155.3333333333333 2576 1155.3333333333333 2582 1158 2588 L 1229 2729" id="v-830" fill="none" style="pointer-events: visiblepainted; cursor: auto;"></path><g ><g id="v-820"  label-idx="0" cursor="move" transform="matrix(1,0,0,1,1156,2579)"><rect joint-selector="rect" id="v-824" fill="#ffffff" rx="3" ry="3" pointer-events="none" width="109.16668701171875" height="25.36436367034912" transform="matrix(1,0,0,1,-52.9,-12.6)"></rect><text joint-selector="text" id="v-823" font-size="24px" xml:space="preserve" y="0.8em" fill="#707070" text-anchor="middle" pointer-events="none" font-family="Arial" font-weight="normal" transform="matrix(1,0,0,1,0,-10.1)"><tspan dy="0" >15: Ответ</tspan></text></g><g id="v-821"  label-idx="1" cursor="move" transform="matrix(1,0,0,1,1156,2605.39990234375)"><rect joint-selector="rect" id="v-826" fill="#ffffff" rx="3" ry="3" pointer-events="none" width="117.71688842773438" height="18.11740207672119" transform="matrix(1,0,0,1,-57.6,-9.1)"></rect><text joint-selector="text" id="v-825" font-size="17px" xml:space="preserve" y="0.8em" fill="#707070" text-anchor="middle" pointer-events="none" font-family="Arial" font-weight="normal" transform="matrix(1,0,0,1,0,-8.2)"><tspan dy="0" >[HTTPS/REST]</tspan></text></g><g id="v-822"  label-idx="2" cursor="move" transform="matrix(1,0,0,1,1146,2613.800048828125)"><rect joint-selector="rect" id="v-828" fill="#ffffff" rx="3" ry="3"  width="0" height="0" transform="matrix(1,0,0,1,0,0)" display="none"></rect><text joint-selector="text" id="v-827" fill="#000000" font-size="14" text-anchor="middle" pointer-events="none"></text></g></g><g  display="none" style="display: none;"><g  transform="translate(1154, 2579)" id="v-857"><circle  idx="0" r="10"></circle><path  idx="0" d="M16,5.333c-7.732,0-14,4.701-14,10.5c0,1.982,0.741,3.833,2.016,5.414L2,25.667l5.613-1.441c2.339,1.317,5.237,2.107,8.387,2.107c7.732,0,14-4.701,14-10.5C30,10.034,23.732,5.333,16,5.333z" transform="translate(5, -33)"></path><path  idx="0" transform="scale(.8) translate(9.5, -37)" d="M24.778,21.419 19.276,15.917 24.777,10.415 21.949,7.585 16.447,13.087 10.945,7.585 8.117,10.415 13.618,15.917 8.116,21.419 10.946,24.248 16.447,18.746 21.948,24.248z"><title>Remove vertex.</title></path></g></g><g  id="v-833" display="none"><g  id="v-818"><path  end="source" d="M 26 0 L 0 13 L 26 26 z"></path></g><g  id="v-819"><path  end="target" d="M 26 0 L 0 13 L 26 26 z"></path></g></g><g  id="v-832" display="none"><g  id="v-817" transform="translate(1211.0101768418851, 2464.726268525271) "><g  event="remove"><circle r="11"></circle><path transform="scale(.8) translate(-16, -16)" d="M24.778,21.419 19.276,15.917 24.777,10.415 21.949,7.585 16.447,13.087 10.945,7.585 8.117,10.415 13.618,15.917 8.116,21.419 10.946,24.248 16.447,18.746 21.948,24.248z"></path><title>Remove link.</title></g><g  event="link:options"><circle r="11" transform="translate(25)"></circle><path fill="white" transform="scale(.55) translate(29, -16)" d="M31.229,17.736c0.064-0.571,0.104-1.148,0.104-1.736s-0.04-1.166-0.104-1.737l-4.377-1.557c-0.218-0.716-0.504-1.401-0.851-2.05l1.993-4.192c-0.725-0.91-1.549-1.734-2.458-2.459l-4.193,1.994c-0.647-0.347-1.334-0.632-2.049-0.849l-1.558-4.378C17.165,0.708,16.588,0.667,16,0.667s-1.166,0.041-1.737,0.105L12.707,5.15c-0.716,0.217-1.401,0.502-2.05,0.849L6.464,4.005C5.554,4.73,4.73,5.554,4.005,6.464l1.994,4.192c-0.347,0.648-0.632,1.334-0.849,2.05l-4.378,1.557C0.708,14.834,0.667,15.412,0.667,16s0.041,1.165,0.105,1.736l4.378,1.558c0.217,0.715,0.502,1.401,0.849,2.049l-1.994,4.193c0.725,0.909,1.549,1.733,2.459,2.458l4.192-1.993c0.648,0.347,1.334,0.633,2.05,0.851l1.557,4.377c0.571,0.064,1.148,0.104,1.737,0.104c0.588,0,1.165-0.04,1.736-0.104l1.558-4.377c0.715-0.218,1.399-0.504,2.049-0.851l4.193,1.993c0.909-0.725,1.733-1.549,2.458-2.458l-1.993-4.193c0.347-0.647,0.633-1.334,0.851-2.049L31.229,17.736zM16,20.871c-2.69,0-4.872-2.182-4.872-4.871c0-2.69,2.182-4.872,4.872-4.872c2.689,0,4.871,2.182,4.871,4.872C20.871,18.689,18.689,20.871,16,20.871z"></path><title>Link options.</title></g></g></g></g><!--z-index:58--><g   id="j_60" ><path  stroke="#707070" d="M 1235 3029 L 1158 3195 C 1155.3333333333333 3201 1156 3206.6666666666665 1160 3212 L 1253 3345" id="v-847" stroke-width="2" stroke-dasharray="30 30" fill="none"></path><path  fill="black" stroke="black" d="M 0 0 0 0" transform="matrix(-0.41905815030254717,0.9079593970354665,-0.9079593970354665,-0.41905815030254717,1234.769287109375,3029)"></path><path  fill="#707070" stroke="#707070" d="M 20 0 L 0 10 L 20 20 z" id="v-849" transform="matrix(-0.5735168789610228,-0.819193743595987,0.819193743595987,-0.5735168789610228,1244.6648133849003,3350.9390691161952)"></path><path  d="M 1235 3029 L 1158 3195 C 1155.3333333333333 3201 1156 3206.6666666666665 1160 3212 L 1253 3345" id="v-848" fill="none" style="pointer-events: visiblepainted; cursor: auto;"></path><g ><g id="v-840"  label-idx="0" cursor="move" transform="matrix(1,0,0,1,1158.5570068359375,3193.799072265625)"><rect joint-selector="rect" id="v-843" fill="#ffffff" rx="3" ry="3" pointer-events="none" width="179.66482543945312" height="86.58784866333008" transform="matrix(1,0,0,1,-89.3,-43.3)"></rect><text joint-selector="text" id="v-842" font-size="24px" xml:space="preserve" y="0.8em" fill="#707070" text-anchor="middle" pointer-events="none" font-family="Arial" font-weight="normal" transform="matrix(1,0,0,1,0,-40.8)"><tspan dy="0" >16: Обновление</tspan><tspan dy="1.2em" x="0" >UI (доклад</tspan><tspan dy="1.2em" x="0" >добавлен)</tspan></text></g><g id="v-841"  label-idx="1" cursor="move" transform="matrix(1,0,0,1,1148.5570068359375,3248.9990234375)"><rect joint-selector="rect" id="v-845" fill="#ffffff" rx="3" ry="3"  width="0" height="0" transform="matrix(1,0,0,1,0,0)" display="none"></rect><text joint-selector="text" id="v-844" fill="#000000" font-size="14" text-anchor="middle" pointer-events="none"></text></g></g><g  display="none" style="display: none;"><g  transform="translate(1154, 3204)" id="v-854"><circle  idx="0" r="10"></circle><path  idx="0" d="M16,5.333c-7.732,0-14,4.701-14,10.5c0,1.982,0.741,3.833,2.016,5.414L2,25.667l5.613-1.441c2.339,1.317,5.237,2.107,8.387,2.107c7.732,0,14-4.701,14-10.5C30,10.034,23.732,5.333,16,5.333z" transform="translate(5, -33)"></path><path  idx="0" transform="scale(.8) translate(9.5, -37)" d="M24.778,21.419 19.276,15.917 24.777,10.415 21.949,7.585 16.447,13.087 10.945,7.585 8.117,10.415 13.618,15.917 8.116,21.419 10.946,24.248 16.447,18.746 21.948,24.248z"><title>Remove vertex.</title></path></g></g><g  id="v-851" display="none"><g  id="v-838"><path  end="source" d="M 26 0 L 0 13 L 26 26 z"></path></g><g  id="v-839"><path  end="target" d="M 26 0 L 0 13 L 26 26 z"></path></g></g><g  id="v-850" display="none"><g  id="v-837" transform="translate(1218.1683936750003, 3065.28632012922) "><g  event="remove"><circle r="11"></circle><path transform="scale(.8) translate(-16, -16)" d="M24.778,21.419 19.276,15.917 24.777,10.415 21.949,7.585 16.447,13.087 10.945,7.585 8.117,10.415 13.618,15.917 8.116,21.419 10.946,24.248 16.447,18.746 21.948,24.248z"></path><title>Remove link.</title></g><g  event="link:options"><circle r="11" transform="translate(25)"></circle><path fill="white" transform="scale(.55) translate(29, -16)" d="M31.229,17.736c0.064-0.571,0.104-1.148,0.104-1.736s-0.04-1.166-0.104-1.737l-4.377-1.557c-0.218-0.716-0.504-1.401-0.851-2.05l1.993-4.192c-0.725-0.91-1.549-1.734-2.458-2.459l-4.193,1.994c-0.647-0.347-1.334-0.632-2.049-0.849l-1.558-4.378C17.165,0.708,16.588,0.667,16,0.667s-1.166,0.041-1.737,0.105L12.707,5.15c-0.716,0.217-1.401,0.502-2.05,0.849L6.464,4.005C5.554,4.73,4.73,5.554,4.005,6.464l1.994,4.192c-0.347,0.648-0.632,1.334-0.849,2.05l-4.378,1.557C0.708,14.834,0.667,15.412,0.667,16s0.041,1.165,0.105,1.736l4.378,1.558c0.217,0.715,0.502,1.401,0.849,2.049l-1.994,4.193c0.725,0.909,1.549,1.733,2.459,2.458l4.192-1.993c0.648,0.347,1.334,0.633,2.05,0.851l1.557,4.377c0.571,0.064,1.148,0.104,1.737,0.104c0.588,0,1.165-0.04,1.736-0.104l1.558-4.377c0.715-0.218,1.399-0.504,2.049-0.851l4.193,1.993c0.909-0.725,1.733-1.549,2.458-2.458l-1.993-4.193c0.347-0.647,0.633-1.334,0.851-2.049L31.229,17.736zM16,20.871c-2.69,0-4.872-2.182-4.872-4.871c0-2.69,2.182-4.872,4.872-4.872c2.689,0,4.871,2.182,4.871,4.872C20.871,18.689,18.689,20.871,16,20.871z"></path><title>Link options.</title></g></g></g></g><!--z-index:59--></g><g ></g><g ></g><g ></g></g></svg>